<?xml version="1.0" encoding="UTF-8"?>
<svg id="Ebene_1" xmlns="http://www.w3.org/2000/svg" version="1.1" viewBox="0 0 3000 1663">
  <!-- Generator: Adobe Illustrator 29.3.0, SVG Export Plug-In . SVG Version: 2.1.0 Build 146)  -->
  <defs>
    <style>
      .st0 {
        isolation: isolate;
        opacity: .8;
      }

      .st0, .st1 {
        stroke: #fff;
      }

      .st0, .st1, .st2 {
        fill: #fff;
      }

      .st2 {
        fill-opacity: 0;
      }
    </style>
  </defs>
  <path class="st2" d="M1,0h3000v1663H1V0ZM590,72l-1,1h-23l-6,2h-9l-1-1h-7l-12,3h-15l-8,3-2-1h-8l-8,2-2-1h-15l-1,1-3-1-16,1-1,1h-11l-17,4h-6l-8,4-13,3-21,8-20,5h-5l-8,3h-7l-3,3-12,5-27,19-24,11c-16,10-31,20.7-45,32l-4,5-8,7-47,53-42,67-20,43-10,25c-1.3,8.7-3.7,16.3-7,23l-4,23v8l-3,10v21l1,1v8l2,2-1,2v10l3,5v7l9,24,3,14,7,15,14,23,1,4,3,1,1,5,7,11c-.7,1.3,0,1.7,2,1l13,16,12,9,18,20,8,5c5.3,4.7,9.7,10.3,13,17l6,3c11.3,1.3,21.3,4,30,8l17,13,1,3,19,13,17,8,4-1,8,4h3l19,7,2,2h3l3,2h3l3,2,23,7,21,10,26,8,31,14,27,10,13,7h5l6,3,19,4,8,5,34,7,31,14,11,1,31,8,28,5,27,10,7,2h5l11,4h4l7,3,14,3,44,16c4.7,2.7,7.7,7,9,13l1,5v26l6,23,3,4v4l6,13,13,19,26,22,27,12,31,8,27,2,1,1h38l11,5,21,23,37,51,1,4,16,12c4-1.3,6.7-1,8,1l9-1,14-6,37-22,29-21,8-8,2-7,2-2c-.7-4-.3-6.3,1-7l-3-14-17-28,1-9c4-5.3,10-9,18-11l42-9,22-8,14-3,12-5,16-4,38-17,100-50,14-5c4,1.3,6.7,1,8-1,4,0,7.3,1,10,3l23,22,8,5,2,4,11,8,6,2,13,8,10,9,19,6,27,14,33,7h13l1,1h9l3,2h34l1-1,14-1,40-10,39-16c6-.7,10.3,0,13,2l8,9,3,7,3,3,10,27v8l4,6,5,19,7,13c0,2.7,2,3.7,6,3l5,7c3.3.7,5.3,0,6-2l11-1,22-10c18-10,34.7-21.7,50-35,6-5.3,10.3-12.7,13-22v-9l-3-11-16-40-6-11-13-37c-1.3-9.3-.3-15.7,3-19l11-11,7-3,8,3,5,8,4,11,7,10v4c-.7,2,.3,2.7,3,2l15,21,1,4,4,1,9,9h2c1.3.7,1.7,2.3,1,5l5,2,18,17,31,16,14,11h5l4,3,12,3,3-1,12,3h11l16,3h7l1,1h8l1-1,4,1,16-1,41-12,22-10,19-11c4-.7,7.3-.3,10,1l8,11,15,37,9,17,8,22,15,32,7,26,3,4v6l3,5,9,8,3,1h2c2.7,1.3,7,1.7,13,1l1,1,11-3,15-7,34-21,9-11,5-12v-10l-9-26-10-38-5-13v-3l-6-13-3-13-4-5v-5l-3-10-6-10v-7l-3-3-3-16-2-2-1-6-7-16v-9c1.3-2.7,4.3-3.7,9-3l6,9c2,7.3,5,13.7,9,19,9.3,8,17,17.7,23,29l3,1,1,5c.7,1.3,2.3,1.7,5,1l1,3,5,4,19,12,2,4h4l15,13,13,7,4,4,15,6,15,3h29l31-8,37-16,32-20,6-2,6,2,2,6,1,12,1,1-3,30c-2,1.3-2.7,4.3-2,9l-4,8v4l-2,3-4,20-6,2v8l-3,12v18c-2,1.3-2.7,4.7-2,10l-2,2-8,19-1,13-7,28v7l-2,4-3,19-3,9v6c-2.7,5.3-4,12.3-4,21l-6,26-4,10-10,8-21,1-1,1-21-1-1-1h-17l-1-1h-20l-8-2h-8l-18-5-24-14-14-12-46-32-39-22-59-28-66-25-17-4-10-4-12-2-3-2-20-4-4-2h-6l-42-9-22-1-23-4h-9l-1-1h-19l-1-1h-11l-1-1h-12l-1-1h-63l-1,1-2-1-35,1-1,1h-9l-1,1h-8l-8,2-14,1-1,1-19,1-28,7-23,3-3,2h-8l-6,2h-5l-4,2-39,9-26,9h-4l-29,9-19,9-49,19-66,34c-36,20.7-69,44.3-99,71l-5,6-2,1-27,28-8,12-12,22-5,14-3,17v18c2,8.7,5.3,16.3,10,23,5.3,6,12.7,10.3,22,13l18,4h9l8,2h12l8,2h26l8-2h15l9-2h17l1-1h10l1-1,26-2,28-5h6l5-2,10-1,26-6h6l16-4,18-2,16-4,16-2,5-2,31-4,17-4,43-3,25-5h6l24-6,34-5,1-1h19l1-1h9l1-1,21-2,1-1,5,1h17l1,1h16l14-3h6l6-2,33-4,6-2h8l7-2h10l1-1h10l1-1h16l23-4,35-2,8-2,18-1,1-1h19l8-2h14l10-2h16l1-1h10l1-1,21-1,1-1h18l1-1h11l1-1h16l1-1h13l8,2,25,20,14,15,14,18,27,30,15,21,16,19,12,18,18,39,10,17,9,21,8,25,2,16,3,12,5,11,4,3,12,5h11l7-2h5l12-4,26-5,31-11,16-10,8-12,2-10v-27l1-1,1-18,2-7v-37l2-10,1-18,1-1v-13l8-41v-24l1-1,1-18,2-11,5-12c3.3-5.3,8.7-8.7,16-10h43l11,2h51l17,4h12l9,2,11-3h7l7-3,17-2,1-1h7l7-3,23-2,13-4,11-6,7-7,4-11-1-8-3-4c-4.7,0-7.7-1.3-9-4h-15l-9,2h-30l-3-2-21,1-3,3h-29l-1-1-2,1h-29l-1-1h-13l-1-1h-48l-1-1c-4.7-1.3-7.3-1-8,1l-2-1h-19l-10-4-6-8c.7-3.3.3-5.3-1-6l2-20,5-20,1-14,3-12v-5l3-14,2-3v-12l2-5v-5l6-25,1-13,3-9,4-26,4-16v-7l5-24v-8l3-10v-6l4-17,5-32,4-15,2-17,4-15,4-30,2-6v-6l10-44v-6l4-18v-7l5-17v-5l3-11v-7l8-32,6-39,3-8v-5l4-16,1-11,4-12v-6l4-16,2-4,2-10v-7l6-20,3-23,1-1-1-12-5-8-10-8h-13l-15,7-53,33-24,18-7,9-5,10-2,8-1,25-1,1-2,18-5,20v10l-8,44-1,16-3,10v6l-2,6v7l-4,22-7,24-6,34-4,14-9,18-26,37c-6.7,8-15,14.3-25,19l-22,7c-4.7-.7-8,0-10,2h-7l-1,1h-7l-1-1h-7l-1-1-18-2-13-4-16-8-24-18-18-19-18-31-10-27-1-12-3-13v-29l2-5,2-14c3.3-9.3,7.7-17.3,13-24l15-41,8-18,6-9,1-6,6-10c1.3-8.7,4-16,8-22l7-21,5-27,6-17,2-20,1-1v-10l4-17v-15l-5-18-3-1c.7-2.7,0-3.7-2-3l-2-2-14-8-9,1-15,5-21,11-29,19-24,13-20,17-12,18-8,26-2,3-1,12-1,1v27l-3,14v10l-1,1,2,33,4,10v15l3,11-1,16-1,1,1,3-2,3v8l-8,25-6,12-4,4h-4l-9-12-8-32-11-28-2-20-6-21v-6l-7-19-7-33-2-4-4-28-6-22-1-12-7-22-3-20-9-31v-15l-4-21v-32l-1-1v-23l1-1-1-17-4-7c-2,.7-2.7.3-2-1l-4-4h-3l-5-3-9,1-16,9-65,52-14,16-7,15-6,22-7,17c-4,10-9.3,19-16,27-5.3,7.3-12.3,12.7-21,16l-47,14h-9l-11-5c-4-2-6.3-5.3-7-10l-2-2-4-3-9-19-7-10-19-18h-2l-5-4-5-6-7-6-2-3-10-7c-2,.7-2.7.3-2-1l-5-4-4-4-5-3-6-7-3-2c-2.7.7-3.7.3-3-1l-21-16-15-6-13-9-6-3h-3l-11-6h-2l-14-8h-4c-4.7-4-10.3-6.3-17-7l-3-3-4,1-11-5h-4l-6-3-12-3-11-2h-8l-1-1h-16l-8-2-4,1h-10l-17-3-1,3c-3.3.7-5.3.3-6-1l-4,2-45,8-22,9h-4l-7,5-7,2-16,8-32,20-16,12c-12,12.7-24.7,24-38,34-16,13.3-30.3,28.3-43,45l-10,6-5-1-4-8-7-31-2-4v-4l-6-22-1-13-2-4v-20l1-1v-8l-2-4-1-8-7-8c-4.7,1.3-7.3,1-8-1l-1,1h-9l-13,5-48,31-27,20-21,21-18,24-25,27-3,5-31,30-14,10c-10,5.3-20.7,9.7-32,13l-34,6c-6.7,1.3-11,.7-13-2l1-5,8-8,8-5,38-31,13-14,14-21c5.3-10.7,9.7-22,13-34l-1-2c0-4.7,1-7.7,3-9v-22l-2-7v-8l-2-6-1-13-7-10-2-8-10-10v-2l-9-15-7-5h-3c.7-2,0-2.7-2-2l-4-6c-2,.7-2.7.3-2-1l-10-9-2-2-15-15-20-12-7-6-4-1-10-7-7-3-7-1-5-3-11-12c-2,.7-2.7.3-2-1l-9-9-11-2-17-7-19-15-6-1-13-8-10-4-8-1-34-18h-7l-8-3-5-6h-4c-2.7-2-6-3.3-10-4l-2-2-3-3-20-2-15-5-8-1-14-5-6-4-2,1-7-5h-7l-14-7-10-2h-2l-13-4h-15l-11-5-3,1-10-1-3-2h-9l-7-3h-13l-13-4h-4l-3-2h-6l-2-2h-4Z"/>
  <path class="st2" d="M513.5,166h15l1,1h11l1,1h35l48,9h7l19,4,11,4,15,3,7,3,30,8,8,1,23,7,27,12h3l26,10,34,15,25,16,39,20,42,28,13.5,12.5,24,26c7.3,11.3,15.7,21.7,25,31l8,17,3,12,2,25-1,1-1,12-6,17c-2.4,5.6-5.9,10.1-10.5,13.5l-7,4-13,4-14,3-26,3-1,1h-16l-9,2h-66l-5,1-1-1-23-1-19-4-31-1-11,2-23,11h-8l-10.5-8v-3.5l-7-10-2-5.5-3-1.5-4.5-6.5c-1.5.5-2,0-1.5-1.5l-1-2.5-3-1.5c-5.4-8.9-12.1-16.6-20-23l-11-16-17.5-19.5-6.5-5.5c.5-1.5,0-2-1.5-1.5l-21-24c-1.5.5-2,0-1.5-1.5l-42.5-46.5c-5.5-6.8-15.2-9.5-29-8l-8,4-29.5,29.5-33,40c-3.9,5.5-6.5,12.1-8,20l2,3,1,7,4,7,22.5,22.5,44.5,40.5,18,22,61,66c6.1,9.9,13.5,18.5,22,26l20,28,43,48,15.5,19.5,2.5,1.5c-.7,2.2-.2,3,1.5,2.5l15.5,18.5c1.8,1.5,2.5,4.2,2,8-1.5,2.8-4.7,4-9.5,3.5l-19-4-31-10-21-4-51-13-37-13-18-4-26-9-13-3-30-11-29-6-16-6h-3l-8-5-19-7h-3l-2-2h-3l-5-4-6-1-24-12-12-3c-3.4-4.3-8.4-6.9-15-8l-7-7h-8c-8.1-5.5-17.8-9.5-29-12l-23-16-24-15-10-4-3.5-3.5-6-13-1-6-5.5-8.5c-1.5.5-2,0-1.5-1.5l-15.5-17.5-3-2-21.5-27.5-12-22-7-21v-8l-4-16v-8l-1-1v-32l1-1v-10l4-18,12-31c9-16,20.5-29.5,34.5-40.5,17.1-14.9,35.8-28.2,56-40l37-18,47-17,18-4,22-7,28-4,11-3,26-1,1-1h47l1-1h12l1-1Z"/>
  <path class="st2" d="M1567.5,404l32,1,18,4h7l40,10,23,9c18.1,7.3,34.7,15.9,50,26,17.9,11.5,34.4,24.3,49.5,38.5,2,2,3,5,3,9-1.5,2.5-4.6,3.4-9.5,2.5l-38-12-24-10-15.5-8c.7-1.8.2-2.5-1.5-2-7.4-5.9-16.1-10.6-26-14l-4,1c-1.2-1.8-3.9-2.1-8-1l-10,3-18.5,15.5-46.5,49.5-15,14-13,8-5,1h-17l-1,1h-9l-10,2-32,11-32,19-32,27-10,3-4.5-3.5-4-9-1-11-1-1v-25l1-1v-9l2-6,2-15,6-16,5-9,1-5,19-41,11-17,8.5-8.5,22-13,25-9,20-4h8l7-2h7l7-2h13l1-1Z"/>
  <path class="st2" d="M1209.5,489c6.7-1.1,10.9.4,12.5,4.5l8,16,5,15,7,31,4,12,3,3v6l6,17v11l-2.5,3.5c-4.1,2.9-10.1,3.9-18,3l-9-2h-50l-2-1-1,1h-42l-1,1h-8l-9,2h-8l-22,7-16,3-3,2h-7c-6.9,3.1-14.9,5.1-24,6l-6,3h-6l-21,7-47,20-20,10-31,20-12,1-8.5-6.5c-5-9.3-11.2-17.5-18.5-24.5l-2.5-1.5-12-17v-9l6.5-3.5,30-1,1-1h24l1-1h9l1-1h9l1-1,13-1,50-12,30-10,33-16,7-2,36-19,68-44,33-26,9-5Z"/>
  <path class="st2" d="M2069.5,510l7.5,3.5,3,6,5,19,1,14-5.5,6.5-6,2h-32l-1,1-18,1-5,3h-9l-20,5-2.5-3.5,5.5-6.5,22-14,32-25,5-2,9-7,9-3Z"/>
  <path class="st2" d="M1789.5,613h21l4,2h34l9.5,5.5,4,8,3,17,1,19,1,1v14l-1,1-1,15-3,12v7l-3,5-5,19-6,12-5,18c-1.5,4.5-4,8-7.5,10.5l-6,2-7.5-5.5c-1.9-6.4-4.9-11.7-9-16v-3l-7-13-3-12-9-17v-3c-3.3-2.7-5.3-6.7-6-12l-5-5v-3l-3-5-4-14-4-6-2-8-7-12-1-4.5-3-1.5-1-15,7.5-9.5,11-1,1-1h11l1-1Z"/>
  <path class="st2" d="M1469.5,641h22l6,2h5l19,5,13,5,16,8,21,15,12,6,15,13,7.5,4c-1,2.5-.5,3.5,1.5,3l31.5,35.5,14,19,10,20,3.5,3.5c1.7-.5,2.2.3,1.5,2.5l5,5c-.5,2.5,0,4,1.5,4.5l2.5,1.5,7,14,9,11,5,13,9,13,1,7,7,13,1,14-4.5,5.5-11,5-15,3-17,1-10,2-23,1-1-1h-16l-9-2h-14l-44-13-33-17-17-12-11.5-11.5-5-8v-9l7-12,1-6v-2c1.8-2.5,2.1-6.5,1-12l-4-11-27-38-19-37-4-14v-22c1.5-.8,1.8-2.8,1-6l5-10,6.5-6.5,7-3,10-2Z"/>
  <path class="st2" d="M1984.5,663h7l7,2,26,12,31,24,26.5,24.5,31,39,27,40,22,38,15,32,2,11c-1.4,5.6-4.2,9.8-8.5,12.5-9.1,5.9-19.8,10.2-32,13l-22,3-6,2-23,1-14-3h-6l-10-3h-5l-23-8-15-7c-15.5-8.5-28.6-19.4-39.5-32.5l-19-27-4-8-4-12-3-20-4-12-1-15,7-29,22-47,3-16,8.5-12.5,4-2Z"/>
  <path class="st2" d="M1059.5,698l47,1,7,2h21l9,2h10l48,12,39,15,20,10,28,17,18.5,17.5,8,14,5,15,17,31,1,11-6.5,8.5-32,16-27,10-35,17h-3l-10,5h-5l-3.5,2.5c.5,1.7-.3,2.2-2.5,1.5l-34,14c-9.3,3.7-19.7,6.3-31,8l-3,2h-4l-10,5h-6l-16,4h-18c-8.3-2.7-14.8-7.2-19.5-13.5l-10-14-37-38-16-20c-12.3-18.7-25.6-36.4-40-53l-8-13-26-33c-3.3-3.3-5-8.3-5-15l5.5-8.5,24-12,22-3,4-2h4l14-4,12-5,17-4h7l7-2h12l1-1Z"/>
  <path class="st2" d="M835.5,900l10,2,21,12,25,19,16.5,16.5c2.7,1.9,3.7,5.6,3,11-2.5,3.5-7,5-13.5,4.5l-20-4-14-5c-7.7-3-14.2-7.2-19.5-12.5-5.3-6-9.7-13-13-21l-2-16,3.5-5.5,3-1Z"/>
  <path class="st2" d="M1866.5,1103h59l1,1h8l9,2,33,1,1,1,19,1,7,2h9l7,2h6l21,4,9,3h5l11,4,23,5,34,10,22,10,28,9,23,11,17.5,14.5,8,13,3,17-1,1v12l-8.5,11.5-9,3h-8l-13,3h-17l-1,1-19,1-1,1h-13c-1,1.7-3.3,2-7,1l-4,2c-.8-1.5-2.8-1.9-6-1l-1,1h-13l-16,3-35,1-24,5h-17l-6,2h-9l-11,3h-6l-4,2h-9l-8,2h-9l-16,3-23,2-27,5-30,3-4,2-4-1-5,1-5,3-4-1-23,6-23,2-2-1-1,1h-8l-1,1-11,1-7,3h-5l-25,8-16,2-3,2h-6l-12,3-21,2-2,2h-7l-3,2-16,3-7,3h-6l-8,2c-1.3-1.9-3.5-2.5-6.5-2l-.5,2h-10l-1,1-31,1-17,5-42,5-3-1-1,1h-7l-45,8h-67l-18-4-8.5-6.5-1-14,2-7,8-13,21.5-23.5,2.5-1.5,4.5-5.5,45-37,39-25,54-29,32-13,9-5,8-2,24-10,48-16h4l19-6,18-3,37-9h5l17-4,31-3,1-1h14l1-1h11l1-1,31-2,1-1h12l1-1Z"/>
  <path class="st2" d="M2504.5,1297c8.2-.9,13.7,1,16.5,5.5,1.9,2.4,2.6,6.1,2,11-.9,5.7-3.1,10.2-6.5,13.5l-6,1-11.5-9.5-7-10v-5l4.5-4.5,8-2Z"/>
  <path class="st0" d="M589.5,72c3.3-.7,5.3,0,6,2h6l3,2h4l8,3,18,1,6.5,2.5-3.5.5-1-1-13-1-2,1-3-2-14-2c-.3-2.3-2-3.3-5-3l-3,1c-.5-2.5-2.5-3.5-6-3l-1,1h-24v-1h23l1-1Z"/>
  <path class="st0" d="M542.5,74c4.9-.6,8.8,0,11.5,1.5l-17.5.5v-1c3.2.9,5.2.5,6-1Z"/>
  <path class="st0" d="M560.5,74l2.5.5-2.5.5v-1Z"/>
  <path class="st0" d="M531.5,76l2.5.5-2.5.5v-1Z"/>
  <path class="st0" d="M515.5,77l1.5.5-4.5,1.5v-1l3-1Z"/>
  <path class="st0" d="M520.5,77l8.5.5-8.5.5v-1Z"/>
  <path class="st0" d="M497.5,79l8.5.5-13.5,2.5h-40v-1l16-1,3,1,1-1h15l2,1,8-2Z"/>
  <path class="st0" d="M508.5,79l2.5.5-2.5.5v-1Z"/>
  <path class="st0" d="M440.5,82l10.5.5-22.5,2.5v-1h5l7-2Z"/>
  <path class="st0" d="M642.5,83l2.5.5-2.5.5v-1Z"/>
  <path class="st0" d="M649.5,83l3.5,1.5-1.5.5-2-2Z"/>
  <path class="st0" d="M424.5,85l2.5.5-16.5,4.5v-1l7-3c3.7,1,6,.7,7-1Z"/>
  <path class="st0" d="M654.5,85l4.5.5-4.5.5v-1Z"/>
  <path class="st0" d="M664.5,85c4.3,0,7.5,1.2,9.5,3.5l-1.5.5-2-2-9.5-.5,3.5-1.5Z"/>
  <path class="st0" d="M683.5,90h9l13,4h6l6.5,2.5-2.5.5-4-2h-8l-12-4h-8v-1Z"/>
  <path class="st0" d="M400.5,92l2.5.5-2.5.5v-1Z"/>
  <path class="st0" d="M396.5,93l2.5.5-4.5,2.5h-4v-1c3.1.4,5.1-.3,6-2Z"/>
  <path class="st0" d="M388.5,96l-1,2-18,6-15,3v-1l21-5,13-5Z"/>
  <path class="st0" d="M723.5,99l3.5,1.5-1.5.5-2-2Z"/>
  <path class="st0" d="M730.5,102c1.2,1.9,3.9,2.2,8,1l7,5,2-1c3.5,3.2,8,5.4,13.5,6.5l-1.5.5-12-5-2,1-5.5-3.5-1.5-2.5-3,2-5.5-2,.5-2Z"/>
  <path class="st0" d="M346.5,107l1.5.5-4.5,1.5v-1l3-1Z"/>
  <path class="st0" d="M335.5,109l2.5.5c-3.4.3-5.6,1.8-6.5,4.5l-10,4-29,20-32,16-26,18-15.5,14.5-3.5,4.5-9.5,8.5-42,49-38,61-23,49-7,18-3,10v5l-3,4-2,7-4,24,1,5-3,8-1,18c1.9,1.1,2.2,3.8,1,8h-1l-1-2v-21l3-10v-8l4-23c3.5-6.5,5.8-14.2,7-23l10-25,20-43,42-67,46.5-52.5,8.5-7.5,3.5-4.5c14-11.7,29-22.3,45-32l24-11,27-19,12-5,3-3Z"/>
  <path class="st0" d="M762.5,114l4.5,1.5-2.5.5-2-2Z"/>
  <path class="st0" d="M768.5,116l3.5.5-3.5.5v-1Z"/>
  <path class="st0" d="M783.5,120l2.5.5-2.5.5v-1Z"/>
  <path class="st0" d="M787.5,121l2.5.5-2.5.5v-1Z"/>
  <path class="st0" d="M792.5,122l3.5.5-3.5.5v-1Z"/>
  <path class="st0" d="M798.5,123l5.5.5-5.5.5v-1Z"/>
  <path class="st0" d="M806.5,124l4.5.5-4.5.5v-1Z"/>
  <path class="st0" d="M812.5,125l3,4,1.5.5-3,.5-1.5-5Z"/>
  <path class="st0" d="M818.5,130l7,3h4.5l4.5,6,7.5,2.5-3.5.5-8.5-4-1.5-4c-5.9.7-9.2-.7-10-4Z"/>
  <path class="st0" d="M844.5,142h5l5,2,24.5,13.5-3.5.5c-4.5-4.1-10.2-7.1-17-9l-3-3-7-3h-4v-1Z"/>
  <path class="st0" d="M880.5,158l3,2,11,2,8.5,4.5-1.5-.5c-4.7,0-8-1.3-10-4l-8-1-3-3Z"/>
  <path class="st0" d="M506.5,165h28l1,1h10l1,1h13l1-1h10l16,3h8l4,2,22,4h11l3,2,20,4,49,14c1-1.7,2-1.3,3,1l39,10,22,10,29,10,37,16,27,17,40,21,38,25,14.5,12.5,19.5,22.5,4.5,3.5,23,30.5,3,1.5,7,13,4,13,1,10,2,2v21l-6,23c-2.2,6.8-5.7,12.3-10.5,16.5l-12,7-19,4v-1l8-1,13-4c5.6-2.4,10.1-5.9,13.5-10.5l4-7,6-17,2-21-1-1-1-16-3-12-8-17c-9.3-9.3-17.7-19.7-25-31l-32.5-34.5-47-32-39-20-25-16-34-15-26-10h-3l-27-12-23-7-8-1-30-8-7-3-15-3-11-4-19-4h-7l-48-9h-35l-1-1h-11l-1-1h-15l-1,1h-12l-1,1h-47l-1,1-26,1-11,3-32,5-60,18-30,12-40,21-34,24-34.5,32.5-15,24-9,25-4,18v10l-1,1v32l1,1v8l2,6v5l2,5v8l9,26,10,17,21.5,27.5,3,2c7.1,4.9,12.3,11.2,15.5,19l4,2.5-2.5-1.5c-2.2.7-3,.2-2.5-1.5l-4-6-22-22-18-25-7-13-8-25-2-16-3-12v-44l4-20,12-32c8.8-16.5,20.3-30.4,34.5-41.5,17.9-15.7,37.6-29.7,59-42l35-17,47-17,18-4,26-8,24-3,16-4h12l1-1h39l1-1h23l1-1Z"/>
  <path class="st0" d="M904.5,167l7.5,4.5-1.5-.5c-3.7-.5-5.7-1.9-6-4Z"/>
  <path class="st0" d="M915.5,173l5,1,3.5,3.5-3.5-2.5c-3.3.4-4.9-.3-5-2Z"/>
  <path class="st0" d="M925.5,178l3,4-3-4Z"/>
  <path class="st0" d="M930.5,182l1,2-1-2Z"/>
  <path class="st0" d="M933.5,184l1,2-1-2Z"/>
  <path class="st0" d="M936.5,186l2,3-2-3Z"/>
  <path class="st0" d="M944.5,191l3.5,1.5-2.5.5-1-2Z"/>
  <path class="st0" d="M949.5,193l3.5,1.5-1.5.5-2-2Z"/>
  <path class="st0" d="M957.5,196l2.5.5-2.5.5v-1Z"/>
  <path class="st0" d="M961.5,197l6,1,9.5,8.5c-.5,1.5,0,2,1.5,1.5l11,12,5,3c5,0,8.8,1.2,11.5,3.5l-3.5.5-11-4-12.5-11.5c.5-1.5,0-2-1.5-1.5l-1.5-4-7-3-1.5-3-6-2v-1Z"/>
  <path class="st0" d="M1012.5,229l1,2-1-2Z"/>
  <path class="st0" d="M1015.5,231l2,3-2-3Z"/>
  <path class="st0" d="M1021.5,235l3.5,2.5-2.5-1.5-1-1Z"/>
  <path class="st0" d="M1026.5,238l2,3-2.5-1.5.5-1.5Z"/>
  <path class="st0" d="M1030.5,241l1,2-1-2Z"/>
  <path class="st0" d="M1035.5,244l3.5,2.5-1.5-.5-2-2Z"/>
  <path class="st0" d="M1040.5,247l3.5,2.5-2.5.5-1-3Z"/>
  <path class="st0" d="M1045.5,250l2,3-2-3Z"/>
  <path class="st0" d="M1049.5,253l2,3-2-3Z"/>
  <path class="st0" d="M1053.5,257l11.5,10.5,1.5,2.5,10.5,8.5c-.5,1.5,0,2,1.5,1.5l4.5,6c2-.7,2.7,0,2,2h2.5l7.5,5,9,15.5-3-2-7-12.5-13-8.5-7.5-9.5-9.5-6c.5-2.5-.3-4.2-2.5-5l-3.5-1.5-4.5-6.5Z"/>
  <path class="st0" d="M1104.5,310l9.5,9.5,2,8,2,2-3-2c-.4-6.6-2.9-11.1-7.5-13.5l-3.5-2.5.5-1.5Z"/>
  <path class="st0" d="M541.5,313l14.5.5-16.5,1.5-5,3-33.5,33.5-29,36-6.5,12.5-.5-1.5,4-9,15-20c15.3-18.7,31.8-36.2,49.5-52.5l8-4Z"/>
  <path class="st0" d="M558.5,314c6.6,2.1,11.8,5.6,15.5,10.5,11.9,15.5,24.9,29.8,39,43v1.5l3,1.5,19.5,22.5c1.5-.5,2,0,1.5,1.5l8,7,48.5,58.5c1.5-.5,2,0,1.5,1.5l1,2.5,4,2.5,3.5,5.5c1.5-.5,2,0,1.5,1.5l2,3h-1l-3.5-4.5c-1.7.5-2.2-.3-1.5-2.5l-58.5-68.5-5.5-4.5-2.5-3.5-2.5-1.5-62.5-69.5c-1.9-2.8-4.9-4.5-9-5l-2-3Z"/>
  <path class="st0" d="M1615.5,316l.5,1.5c-.8,2.5-3.3,3.4-7.5,2.5l-3-1-4,3h-6l-32,6-3,2h-4l-2,2h-4l-13,5v-1l21-8,45-8,4-2c.9,1.5,2.9,1.9,6,1l2-3Z"/>
  <path class="st0" d="M1618.5,316l13,3h10l4-1,7.5,1.5-5.5,1.5-5-2-3,2-1-1h-12l-8-3v-1Z"/>
  <path class="st0" d="M2164.5,317c5.1-1,7.2-.3,6.5,2h-9.5l-15,9-51,40-22.5,20.5-10,17-8,27-14,31-16.5,20.5-8,6-15,6-38,11h-11l-12.5-6.5-4-8h1c.5,4.3,2.3,7.1,5.5,8.5l11,5h9l47-14c9-3.7,16.2-9.2,21.5-16.5,6.4-7.9,11.7-16.9,16-27l7-17,6-22,7-15,13.5-15.5,65-52,19-10Z"/>
  <path class="st0" d="M2172.5,318l2.5,1.5-1.5.5-1-2Z"/>
  <path class="st0" d="M1661.5,320h8l1,1h8l11,2,12,3,6,3h4l11,5,4-1,3,3c6.9.8,12.4,3,16.5,6.5l-2.5.5-4-3-12.5-4.5c.5-1.7-.3-2.2-2.5-1.5l-3,1-2-2-9-3h-4l-6-3-12-3h-6l-4-2-17-1v-1Z"/>
  <path class="st0" d="M2177.5,320l5.5,3.5c-.5,1.5,0,2,1.5,1.5l4.5,6.5,1,17-1,1v23l1,1v32l4,21v15l9,31,3,20,7,22,1,12,6,22,4,28,2,4,7,33,7,19v6l6,21,2,20,11,28,8,32,8.5,12.5h4l4.5-4.5,6-12,7.5-24.5.5,3.5-7,22-9.5,15.5-6,1-3.5-2.5-7-13-7-28-11-29-3-24-3-8v-5l-2-4-1-9-7-19v-4l-6-21-14-74-5-18-2-2-2-18-4-11c-.4-8.3-2.1-15.3-5-21l-1-21-2-5-1-20-1-1v-62l-1-4-8.5-8.5-1-1Z"/>
  <path class="st0" d="M1118.5,331l3.5,4.5-1.5-.5c-1.7.5-2.2-.3-1.5-2.5l-.5-1.5Z"/>
  <path class="st0" d="M1309.5,333l7.5.5-12.5,2.5-17,9-56,37-21.5,19.5-40,49-32.5,33.5-4.5,3.5-6.5,7.5c-18.1,16.5-43.1,26.2-75,29v-1l26-4c11.8-3.2,22.5-7.5,32-13l14-10,31.5-30.5,3-5,25-27,18-24,20.5-20.5,27-20,40-26,10-6,11-4Z"/>
  <path class="st0" d="M1326.5,333l8.5,7.5-.5,1.5-7-8-1-1Z"/>
  <path class="st0" d="M1122.5,337l1.5,13.5,2,6v8l2,7v22l-2.5,5.5-.5-4.5,1-1v-24l-4-20,.5-12.5Z"/>
  <path class="st0" d="M1532.5,337l1.5.5-3,2c.5,1.5,0,2-1.5,1.5l-28,13-23,14-22,16-38,34-35.5,35.5-12.5,13.5-6,3h-3l-5.5-4.5-3-7-1-8-14-55c.7-6,0-10.7-2-14v-32l-1-5h1c-.5,3.8.2,6.5,2,8v8l-1,1v20l2,4,1,13,6,22v4l2,4,7,31,4,8.5,4.5,1,10.5-6.5c12.7-16.3,26.9-31.1,42.5-44.5,13.9-10.1,26.5-21.5,38-34l16-12,32-20,16-8,7-2,7-5Z"/>
  <path class="st0" d="M1748.5,343c5.9,1.5,10.7,4,14.5,7.5l-1.5.5-10-5-3-3Z"/>
  <path class="st0" d="M1769.5,352l8,5h3l6,3,13,9,13.5,5.5-2.5,1.5-12-6-13-9-6-3h-3l-7.5-4.5.5-1.5Z"/>
  <path class="st0" d="M1814.5,375l10.5,7.5-1.5-.5-8.5-3.5-.5-3.5Z"/>
  <path class="st0" d="M1826.5,383l4.5,3.5-1.5-.5-3-3Z"/>
  <path class="st0" d="M1832.5,387l3.5,5,4,1.5-1.5-.5c-3.9,1.4-5.4.6-4.5-2.5l-1.5-3.5Z"/>
  <path class="st0" d="M1842.5,396l5,5,5.5,2.5,3.5,4.5,5.5,3.5c-.5,1.5,0,2,1.5,1.5v1l-3.5-1.5-1.5-2.5-6.5-3v-4h-1.5c-3.8-.8-6.6-2.6-8.5-5.5l.5-1.5Z"/>
  <path class="st0" d="M464.5,401l.5,1.5-1,4,1,2h-1l-1-5,1.5-2.5Z"/>
  <path class="st0" d="M1124.5,402l1.5,2.5c-3.3,12.4-7.6,23.7-13,34l-14,21-13.5,14.5-38,31-8,5-7.5,7.5-1,5c2,2.7,5.7,3.7,11,3l-8.5.5-4.5-3.5,1-4,11.5-11.5,35-27,18.5-17.5,7-9,14-24,7-19,1.5-8.5Z"/>
  <path class="st0" d="M1563.5,403h25l1,1,2-1,1,1h8l12,3,12,1,27,6,19,6,31,13,22,11,25,16,39.5,31.5,4,9-2.5,3.5c-2.1,1.5-5.5,1.9-10,1l-35-11-24-10-14-7-21-14-10-4-4,1-2.5-1.5,1.5-.5,4,1,2-1,26.5,14c-.7,1.8-.2,2.5,1.5,2l14,8,24,10,23,7,3,2,12,3h6l3.5-2.5-1-6-9.5-10.5-36-27-19-12-21-11-31-13-29-9h-5l-14-4h-7l-18-4-32-1-1,1h-13l-21,4h-8l-20,4c-13.6,3.7-25.9,8.7-37,15-7.1,4.2-13.3,9.4-18.5,15.5l-17,29-25,59-2,15-2,6v9l-1,1v25l3,15,5.5,8.5,5,1,7-3,24-21,28-19,30-13,24-6h8v1h-8c-1.3,2.7-4.7,3.3-10,2l-29,10c-13.1,5.9-25.1,12.9-36,21l-32,27c-2.2,1.8-5.5,2.5-10,2l-4.5-3.5-4-8-2-10v-37l2-5v-7l4-16,18-42,15-30c4.1-7.5,9.3-14,15.5-19.5,12.5-9.8,27.5-17.1,45-22l23-5h7l7-2,25-2,1-1Z"/>
  <path class="st0" d="M465.5,412l4.5,9.5,24.5,24.5,41.5,37.5,11,14.5,3,1.5,10,13,55,59c9,13,19,25,30,36l18,25,38,42,16.5,20.5c1.5-.5,2,0,1.5,1.5l-1.5-.5-2.5-1.5-14-18-43-48-20-28-11-11-23-29-39-41-38.5-43.5c-20-16.3-38.8-33.8-56.5-52.5-3.1-3.2-4.6-7-4.5-11.5Z"/>
  <path class="st0" d="M1865.5,414l8.5,5.5,1.5,3.5,7.5,5.5,4,6-3,.5v-2.5l-4.5-5.5-5.5-3.5-3.5-5.5c-3.1-.5-4.7-1.8-5-4Z"/>
  <path class="st0" d="M2432.5,433l9,1,10.5,6.5,1,2-2-1c.5-1.5,0-2-1.5-1.5l-5-3-7-2h-5c-1,1.7-3.3,2-7,1l-11,4-25,13c-15.3,11.1-31.6,21.1-49,30-8.8,5.9-16.6,12.7-23.5,20.5l-10,19-8,25-2,16c1.5.9,1.8,2.9,1,6l-1,1v16l-3,16v25c2.2,4.8,2.9,11.1,2,19l2,6h-1l-3-9-2-33,1-1v-10l3-14v-27l1-1,1-12,2-3,8-26,11.5-17.5,20-17,24-13,29-19,21-11,19-6Z"/>
  <path class="st0" d="M1888.5,435l16.5,13.5-1.5,1.5-3.5-3.5-5.5-6.5-2,1c-2.7-1.5-4.1-3.5-4-6Z"/>
  <path class="st0" d="M2454.5,443c1.5-.5,2,0,1.5,1.5l-1.5-1.5Z"/>
  <path class="st0" d="M2456.5,446l2.5,1,5,17.5v15l-4,17v10l-1,1-2,20-6,17-5,27-7,21c-4,6-6.7,13.3-8,22l-6,10-1,6-6,9-8,18-15,41c-5.5,6.8-9.9,14.8-13,24l-2,14-2,5v29l3,13,1,12,10,27,18,31,17.5,19.5,24,18,16,8,13,4,26.5,3.5-7.5.5-23-4-24-10c-14.8-8.9-27.6-19.7-38.5-32.5-14.5-17.8-25.5-39.1-33-64l-1-11-4-19v-22l6-26,16-30,11-32,12-23,4-12,4-6,4-14,7-16,6-20,2-15,4-15,3-6,1-11,1-1-1-2,2-7,2-22,3-8v-12l-4-16c-2.8-.8-3.6-2.3-2.5-4.5Z"/>
  <path class="st0" d="M1906.5,449l7,8-5.5-4.5-1.5-3.5Z"/>
  <path class="st0" d="M1663.5,458l1.5.5c-1.5,2.1-4.4,3-8.5,2.5l-7,4-19.5,18.5-32.5,35.5-2.5,1.5-1.5,2.5-18,17-10,7-10,3h-17v-1c12.2,1.5,21.5.2,28-4l7-5,28.5-27.5,38.5-41.5,13-10,10-3Z"/>
  <path class="st0" d="M1914.5,458l3.5,3.5,12,24,3.5,3.5,2.5,1.5-2.5.5c-1.5.5-2,0-1.5-1.5l-1-2.5c-2,.9-2.7,0-2-2.5l-5-7-7-13v-3l-2.5-3.5Z"/>
  <path class="st0" d="M81.5,471l1.5,2.5-2-1,.5-1.5Z"/>
  <path class="st0" d="M82.5,476c-.3,5.9.6,10.8,2.5,14.5l-2-1c-1.7-3.5-1.8-8-.5-13.5Z"/>
  <path class="st0" d="M707.5,478l2.5,3.5h-1l-1.5-3.5Z"/>
  <path class="st0" d="M2764.5,481l9.5.5-4.5,1.5-3-1-18,8-38,23-26,18-14.5,13.5-7,12-3,10-1,24-1,1-2,19-4,15-1,15-4,19v6l-1,1v6l-1,1-3.5,25.5-.5-5.5,1-1v-9l2-7,2-19,4-18v-10l5-20,2-18,1-1,1-25,2-8,5-10,7-8.5,13.5-11,39-26,39-21Z"/>
  <path class="st0" d="M2776.5,481c4.9,1.5,8.7,4,11.5,7.5l5,8,1,12-1,1-3,23-6,20v7l-2,10-2,4-4,16v6l-4,12-1,11-4,16v5l-3,8-6,39-8,32v7l-3,11v5l-5,17v7l-4,18v6l-10,44v6l-2,6-4,30-4,15-2,17-4,15-5,32-4,17v6l-3,10v8l-5,24v7l-4,16-4,26-3,9-1,13-6,25v5l-2,5v12l-2,3-3,14v5l-3,12-1,14-5,20-2,20c1.5.8,1.9,2.8,1,6l5.5,8.5,9.5,3.5-3.5.5-9.5-5.5c-3.9-4.5-5.2-11.5-4-21l1-1,3-23,3-9v-9l1-1,3-23,4-12v-8l4-18,1-11,2-5,2-16,7-32v-6l4-15,9-60,18-90,7-46,4-14,1-11,7-32,1-13,4-14,5-31,8-32,2-17,2-6v-6l6-24,4-27,3-8,4-22,4-12,1-12,6-21v-5l3-13v-14l-5-10.5-6.5-3-4-4Z"/>
  <path class="st0" d="M710.5,483l3.5,5.5h-1l-3-4,.5-1.5Z"/>
  <path class="st0" d="M964.5,485l3.5.5-3.5.5v-1Z"/>
  <path class="st0" d="M766.5,486l31,1,19,4,28,2,1-1h22v1h-21l-5,2-3-2h-14l-27-5-26-1-1,1h-10l-7,2-20,10h-9l-10.5-8.5,1.5-.5,9,8h8l23-11,11-2Z"/>
  <path class="st0" d="M957.5,486l5.5.5-18.5,2.5v-1l12-1,1-1Z"/>
  <path class="st0" d="M1211.5,487c5,0,8.5,1.5,10.5,4.5l10,20,4,12,2,12,3,6,1,10,7,18-3-2-16-58-6-13-5.5-6.5-9-1-9,5-33,26-68,44-36,19-7,2-33,16-30,10-50,12h-6l-8,2h-9l-1,1h-9l-1,1h-24l-1,1-30,1-6.5,3.5v9c3,6.3,7,11.7,12,16l-2.5-1.5c-1.5.5-2,0-1.5-1.5l-9-12-1-9,2.5-3.5,13-3,43-1,1-1h12l1-1,23-2,51-12,25-8,52-23,19-10,63-40c16.9-10.4,32.6-22.1,47-35l13-7Z"/>
  <path class="st0" d="M937.5,489l5.5.5-5.5.5v-1Z"/>
  <path class="st0" d="M920.5,490l12.5.5-12.5.5v-1Z"/>
  <path class="st0" d="M912.5,491l6.5.5-6.5.5v-1Z"/>
  <path class="st0" d="M885.5,492l17.5.5-17.5.5v-1Z"/>
  <path class="st0" d="M85.5,497l2.5,3.5,13,42,10,16,8,17h-1l-21-39-3-14-8.5-25.5Z"/>
  <path class="st0" d="M2067.5,509h5l6.5,5.5,8,28v11l-4.5,5.5-8,3h-23c-.9,1.5-2.9,1.9-6,1l-3-1-1,1-17,1-5,2v-1l4-2,18-1,1-1h32c4.9-.7,8.4-2.9,10.5-6.5,1.7-2.3,2-6,1-11l-6-24-4.5-7.5-6-2-9,3-9,7-5,2-58.5,43.5-1,3c.5,2.2,2.4,3,5.5,2.5l8-3,13-2v1h-4l-16,5h-5l-3.5-3.5,1-1,8.5-9.5,19-12,28-22,17-11,9-4Z"/>
  <path class="st0" d="M1044.5,524l5.5.5-5.5.5v-1Z"/>
  <path class="st0" d="M222.5,526l3.5,2.5-1.5-.5-2-2Z"/>
  <path class="st0" d="M225.5,530l6.5,14.5h-1l-5-8-.5-6.5Z"/>
  <path class="st0" d="M232.5,546l4,5,15,7,42,28c11.2,2.5,20.9,6.5,29,12l5.5.5-5.5,1.5-14-8h-3c-3.5-2.9-8-4.5-13.5-5l-1.5-3h-4l-11-9-31-20-8-3-4.5-4.5.5-1.5Z"/>
  <path class="st0" d="M1249.5,572l5.5,17.5,2,12c-.8,3.9-2.6,6.7-5.5,8.5l-7,2h-7v-1l12-1,4.5-3.5,1-2v-11l-6-17,.5-4.5Z"/>
  <path class="st0" d="M119.5,577l3.5,3.5,10,17-1.5-.5c-1.5.5-2,0-1.5-1.5l-7-11-1-4.5-3-1.5.5-1.5Z"/>
  <path class="st0" d="M329.5,598l10.5,8.5-1.5-.5c-4.5-2.1-7.5-4.8-9-8Z"/>
  <path class="st0" d="M133.5,599l41.5,39.5,7,8-2.5-1.5-4.5-3.5-18.5-19.5-11.5-9.5-11.5-13.5Z"/>
  <path class="st0" d="M341.5,606c4.7,1.3,8.3,3.7,11,7l7,1,1.5,1.5-1.5-.5h-6c-2.8-3.9-6.8-6.5-12-8v-1Z"/>
  <path class="st0" d="M1130.5,609l40.5.5-32.5,1.5-4-1-1,1h-12v-1h8l1-1Z"/>
  <path class="st0" d="M1195.5,609h30l8.5,1.5-8.5.5-1-1h-29v-1Z"/>
  <path class="st0" d="M1113.5,611l6.5.5-6.5.5v-1Z"/>
  <path class="st0" d="M1800.5,611l4.5,1.5-35.5,2.5-4,1-5.5,5.5c-2.3,2.7-3,7-2,13l1,2-3-2v-9l8.5-10.5,10-2,25-1,1-1Z"/>
  <path class="st0" d="M1104.5,612l7.5.5-7.5.5-8,2-5,3h-5l-4,2-16,3-3,2h-7l-6,3h-5v-1l11-3h7l3-2,16-3,22-7Z"/>
  <path class="st0" d="M1809.5,612l5,2h4l1-1h11l1,1c8.5-1.1,15.5-.8,21,1l7.5,6.5,4,8v7l3,13,1,34-5,25,1,2-2,1,4-22,1-24-1-1v-11l-1-1-2-20-5-12-2.5-2.5-7-3h-34l-5-2v-1Z"/>
  <path class="st0" d="M362.5,616l28.5,12.5-3.5.5-25-12v-1Z"/>
  <path class="st0" d="M1041.5,628l2.5.5-6.5,1.5v-1l4-1Z"/>
  <path class="st0" d="M394.5,629l4.5,3.5-1.5.5-3-4Z"/>
  <path class="st0" d="M1032.5,630l2.5.5c-1.3,2-3.8,2.8-7.5,2.5v-1l5-2Z"/>
  <path class="st0" d="M401.5,633l36.5,14.5-3.5.5c-8.8-5.5-19.1-9.5-31-12l-2-3Z"/>
  <path class="st0" d="M1020.5,633l4.5.5-27.5,8.5-47,20-21,11-27,18c-3.1,1.5-7.5,1.9-13,1l-3-1-8.5-8.5c-4.3-8.5-9.8-15.6-16.5-21.5-1.5.5-2,0-1.5-1.5l1.5.5,6.5,5.5,17.5,23.5c2.7,2.3,7,3,13,2l9-4,25-17,20-10,47-20,21-7Z"/>
  <path class="st0" d="M1468.5,640h23l12,3h6l3,2,10,2,27,12,33.5,22.5-1.5.5-31-21-26-12-33-8h-22l-13,3-10.5,8.5-5,10c.8,3.2.5,5.2-1,6v22l4,14,11,23c10.4,18.6,22.1,35.9,35,52l3,6,1,6h-1l-4-11-28-40-18-35-4-12v-28c1.7-8.6,5.6-15.1,11.5-19.5l5-3,13-3Z"/>
  <path class="st0" d="M1759.5,641l2.5,1,1,3.5h-1l-2.5-4.5Z"/>
  <path class="st0" d="M183.5,647l6,7-6-7Z"/>
  <path class="st0" d="M1763.5,647l1.5,2.5h-1l-.5-2.5Z"/>
  <path class="st0" d="M439.5,648l10,4,33,7,30,11,13,3,26,9,18,4,37,13,51,13,21,4,39,12,15,2,5.5-3.5c.5-3.8-.2-6.5-2-8l-15.5-18.5c-1.5.5-2,0-1.5-1.5l2.5,1.5c1.5-.5,2,0,1.5,1.5l15,18,1,8c-1.9,3.1-5.7,4.3-11.5,3.5l-18-4-39-12-22-4-4-2h-4l-31-8-37-13-25-6-10-4h-4l-2-2-16-4-34-12h-4l-20-6h-7c-1.5-2.5-4.5-3.5-9-3l-2-3Z"/>
  <path class="st0" d="M1765.5,651l1.5,2.5-2-1,.5-1.5Z"/>
  <path class="st0" d="M190.5,655l9,10c14.6,1.5,26.8,5.1,36.5,11l1.5,3,6.5,3.5,4,5-5.5-4.5-9-7-9-4-18-5h-5l-5.5-3-5.5-9Z"/>
  <path class="st0" d="M1767.5,655l10.5,22.5,5,17,5,6h-1l-5-6-7-21-3-4-1-6-4-6,.5-2.5Z"/>
  <path class="st0" d="M2298.5,658l1.5,5.5,1,15h-1l-2-10,.5-10.5Z"/>
  <path class="st0" d="M1983.5,662h8l10,3,25,12c22.5,15.9,43,33.7,61.5,53.5,24.3,29.3,46.3,61,66,95l24,48,2,7v7c-1.5,4.5-4,8-7.5,10.5l-15,8-11,4-13,3-11,1v-1c22.9-1.7,40.8-8.6,53.5-20.5l3-7v-4l-5-14-12-25-22-38-27-40-32.5-40.5-25-23-31-24-26-12-7-2h-7l-7.5,5.5-5,9-2,13-7,18-16,32-6,23-1,16,5,17,3,20,8,20,19,27,16.5,16.5c10.9,9.4,23.6,17.1,38,23l23,8h5l9.5,2.5-4.5.5-17-4-35-15c-11.5-6.8-21.7-15-30.5-24.5-12.6-13.1-22.9-28.4-31-46l-4-15-1-11-5-17v-15l7-27,19-39,4-11,2-13,8.5-12.5,4-2Z"/>
  <path class="st0" d="M1584.5,682l21.5,16.5-1.5.5-17-13-3-4Z"/>
  <path class="st0" d="M2300.5,686l.5,15.5-2.5,8.5-.5-7.5,2-3-1-3,1-1,.5-9.5Z"/>
  <path class="st0" d="M249.5,688c1.5-.5,2,0,1.5,1.5l7,6-1.5-.5-6.5-4.5-.5-2.5Z"/>
  <path class="st0" d="M259.5,696l1,2-1-2Z"/>
  <path class="st0" d="M1052.5,697h47l10,2,24.5,1.5-20.5.5-7-2-47-1-1,1h-12l-7,2h-7l-17,4-12,5-14,4h-4l-4,2-22,3-20,9-6.5,5.5-3,6v4l3,8,12,17,7,7,17,25c14.4,16.6,27.7,34.3,40,53l16,20,37,38c4.6,8.4,10.4,15.6,17.5,21.5l12,6h18c.9-1.5,2.9-1.9,6-1v1l-15,1-1,1-14-3-13.5-10.5-15-20-35-36-41-53-23-33-27-35c-2-2.7-2.7-6.7-2-12l7.5-9.5c6.5-4.8,14.2-8.5,23-11l29-5,38-12,10-2h7l1-1h7l1-1Z"/>
  <path class="st0" d="M262.5,698c7.3,6,16.2,10.5,26.5,13.5l-3.5.5-17-8-6-6Z"/>
  <path class="st0" d="M1606.5,700l22.5,25.5-3-2-18.5-21.5c-1.9.5-2.2-.2-1-2Z"/>
  <path class="st0" d="M2640.5,700l.5,5.5-8,46-8,29-3,21-6,21c-10.7,24-24.5,44.8-41.5,62.5-10.1,9.9-23.7,16.3-41,19v-1c20.5-3.5,36-12,46.5-25.5l18-24,17-31,5-18,5-30,7-24,4-22v-7l2-6v-6l2.5-9.5Z"/>
  <path class="st0" d="M1135.5,701l19,1,15,3,4,2h4l33,10,28,11,40,21c11.4,6.6,21.2,14.8,29.5,24.5l7,12,5,15,19,35,1,6-3,9-3.5,3.5-38,19c-20.6,6.7-39.6,15.1-57,25l-15,5v-1c17.5-6.1,33.9-13.5,49-22l27-10,29-14,7.5-6.5c2.2-2.5,2.9-6.5,2-12l-18-34-9-23c-4.9-8.1-11-15-18.5-20.5l-32-20-42-19-27-9c-10.2-1.1-19.2-3.5-27-7h-5l-6-2-18-1v-1Z"/>
  <path class="st0" d="M1788.5,703l5.5,9.5h-1l-5-7,.5-2.5Z"/>
  <path class="st0" d="M290.5,711l3.5,1.5-1.5.5-2-2Z"/>
  <path class="st0" d="M295.5,713c8.2,1.1,15,3.6,20.5,7.5l-1.5.5c-4.5-3.1-10.2-5.1-17-6l-2-2Z"/>
  <path class="st0" d="M1794.5,715l6.5,11.5,5,17,7,14-3-2-1-6-4-5-5-17-3-4-2.5-8.5Z"/>
  <path class="st0" d="M1861.5,715l.5,2.5-2,3-5,18-5,10-3,9v4l-4,10-6.5,8.5c-1.5,1.8-4.2,2.5-8,2l-6.5-4.5-9-17h1l8,15,3.5,3.5,6,2,8.5-6.5c3.9-6.7,6.6-14.7,8-24l6-12,4-16,3.5-7.5Z"/>
  <path class="st0" d="M317.5,721l29,9,24,11,39,13c14.1,7.6,29.4,13.9,46,19l21.5,10.5-2.5.5-13-7-27-10-16-8-49-17-13-7-23-7-3-2h-3l-3-2h-3l-4-2v-1Z"/>
  <path class="st0" d="M1629.5,727l12.5,12.5,9,12,15.5,27.5,2.5,1.5,2.5,4.5c1.5-.5,2,0,1.5,1.5l-5-4c.7-2.2.2-3-1.5-2.5l-3.5-3.5-10-20-14-19-9.5-10.5Z"/>
  <path class="st0" d="M480.5,784l15,3,4,2h4l6.5,4.5-1.5.5-4-3-22-5-2-2Z"/>
  <path class="st0" d="M1673.5,789l1.5,2.5-2-1,.5-1.5Z"/>
  <path class="st0" d="M1676.5,792c4.1,3.9,6.9,9.1,8.5,15.5l3.5,3.5,2.5,1.5,6,13h-1l-3-7-9-11-7.5-15.5Z"/>
  <path class="st0" d="M511.5,794c1.1,1.9,3.8,2.2,8,1l3.5,2.5-1.5.5-9-2-1-2Z"/>
  <path class="st0" d="M525.5,798l10,1,15,4,21,9,6.5,4.5-1.5-.5-27-12-21-4-3-1v-1Z"/>
  <path class="st0" d="M1493.5,798l.5,2.5-1.5,2.5-.5-2.5,1.5-2.5Z"/>
  <path class="st0" d="M1492.5,804l.5,3.5-8,15v9c4.1,7.9,9.6,14.4,16.5,19.5,18.3,14.6,40,25.9,65,34l29,8h14l9,2,26,1,1-1h13l1-1,32-3,14-4,8.5-5.5c1.7-.9,2.4-2.9,2-6l-1-2h1l2,4-7.5,8.5-9,4-15,3-26,2-1,1h-12l-1,1h-14l-1-1h-15l-1-1-21-1-41-12c-25.5-9.9-47-23.7-64.5-41.5l-5-8-1-5c1.5-.8,1.9-2.8,1-6,3.9-4.7,6.8-10.6,8.5-17.5Z"/>
  <path class="st0" d="M580.5,816l19,3,17,5h6l9,3,17,3,27,10,54,14,36,13,9.5,8.5,3,9v27c1.5.9,1.9,2.9,1,6l4,15,3,6-2-1-5-14v-5l-2-6v-26l-1-5c-1.6-5.7-4.8-9.9-9.5-12.5l-44-16-14-3-7-3h-4l-11-4h-5l-7-2-27-10-63-13-4-1v-1Z"/>
  <path class="st0" d="M1698.5,830l1.5,2.5-2-1,.5-1.5Z"/>
  <path class="st0" d="M1700.5,834l6.5,9.5h-1l-5.5-9.5Z"/>
  <path class="st0" d="M1880.5,834c5.5.5,9.4,2.7,11.5,6.5l8,17-2-1c-1.7-7.6-4.9-13.8-9.5-18.5l-8-3-7,3-10.5,10.5c-3.5,3.9-4.5,10.2-3,19l13,37,6,11,16,40,3,11v9c-2.5,9.5-7,17-13.5,22.5-15.3,13.1-31.9,24.7-50,35l-22,10-11,1-3,2v-1l3-2h5l10-3,31-16,29-21,12.5-11.5,6-11,1-16-8-23-25-60-4-12-1-13c2.5-8.2,7-14.4,13.5-18.5l9-4Z"/>
  <path class="st0" d="M2311.5,845h4l6.5,6.5,10,21c9.2,9.1,17.4,19.3,24.5,30.5l2.5,1.5-.5,2.5-.5-2-3-1.5c-6.3-11.1-13.9-20.7-23-29-4.2-5.1-7.2-11.5-9-19l-6.5-8.5c-4.3-.7-7.2.2-8.5,2.5v9l8,20-2-1-1-5-6-12-1-8,3.5-6.5,2-1Z"/>
  <path class="st0" d="M1708.5,848l8.5,18.5-1.5,2.5-.5-4.5-7-13,.5-3.5Z"/>
  <path class="st0" d="M1900.5,859l4,6c2-.6,2.5.6,1.5,3.5l19,26-2,.5-15.5-22c-2.5.9-3.3,0-2.5-2.5v-2l-4.5-9.5Z"/>
  <path class="st0" d="M1412.5,878l5.5.5c-2.3,1.7-5.8,2.2-10.5,1.5l-14,5-100,50-38,17-16,4-12,5-14,3-22,8-42,9c-7.5,1.9-13.3,5.4-17.5,10.5l-1,9,17,28,3,14-2,1v-7l-3-9-16-26v-9l5.5-6.5,16-7,16-4h6l6-3,11-1,25-9,7-2h5l10-5,17-4,36-16,91-46,22-9,9-2Z"/>
  <path class="st0" d="M1419.5,879l2.5.5-2.5.5v-1Z"/>
  <path class="st0" d="M1423.5,880l12.5,11.5-10.5-9.5-2-2Z"/>
  <path class="st0" d="M2316.5,881l1.5,1.5,3,16,3,3-2.5-1.5c-1.7.5-2.2-.3-1.5-2.5l-3-9c.3-4,.2-6.5-.5-7.5Z"/>
  <path class="st0" d="M1437.5,892l11,12-11-12Z"/>
  <path class="st0" d="M1926.5,898l11,9h2.5l-.5,2-3-1-10-10Z"/>
  <path class="st0" d="M833.5,899h6l7,2,13,7c17.9,11.4,34.1,24.6,48.5,39.5l4,7v6c-1.4,2.9-4.2,4.4-8.5,4.5v-1c4.1.5,6.6-.7,7.5-3.5.7-5.4-.3-9.1-3-11l-16.5-16.5-34-25-12-6-10-2-5.5,3.5-1,9c2.8,14.2,8.6,25.4,17.5,33.5,11.5,8.9,26,14.7,43.5,17.5l-4.5.5-29-10c-6.7-3.3-12.2-7.8-16.5-13.5l-9-15-3-10v-11l3.5-4.5,2-1Z"/>
  <path class="st0" d="M1219.5,902l2.5.5-5,1.5-2.5,4h-4l-8,4h-3l-6,4-6,1-5,3-15,5-15,3-6,3h-5l-9,4v-1l9-4h4l3-2c11.3-1.7,21.7-4.3,31-8l30-13,6.5-1,1.5-3,2-1Z"/>
  <path class="st0" d="M2527.5,904l4.5.5-8.5,1.5v-1l4-1Z"/>
  <path class="st0" d="M1452.5,905l3,4-3-4Z"/>
  <path class="st0" d="M2515.5,906l6.5.5-6.5.5v-1Z"/>
  <path class="st0" d="M2359.5,908l.5,2,2,.5-1.5.5-1-3Z"/>
  <path class="st0" d="M1457.5,909l11.5,9.5c-.6,2,.6,2.5,3.5,1.5l15.5,10.5-1.5-.5-11-7-6-2-10.5-8-1.5-4Z"/>
  <path class="st0" d="M2324.5,909c4.5,5.5,7.4,12.7,8.5,21.5h-1l-2-4-1-7-5-9,.5-1.5Z"/>
  <path class="st0" d="M1940.5,911l.5,2,4.5,1,13.5,12.5,3.5,4.5,1.5.5-1.5.5-18-17-4.5-2.5.5-1.5Z"/>
  <path class="st0" d="M2364.5,911c1.5-.5,2,0,1.5,1.5l27,21-2,.5-2.5-4-19-12-4.5-4.5-.5-2.5Z"/>
  <path class="st0" d="M2068.5,914l10.5,1.5-5.5.5-5-1v-1Z"/>
  <path class="st0" d="M2116.5,914l4.5.5-4.5.5v-1Z"/>
  <path class="st0" d="M2111.5,915l3.5.5-3.5.5v-1Z"/>
  <path class="st0" d="M2080.5,916l6.5.5-6.5.5v-1Z"/>
  <path class="st0" d="M2099.5,916l9.5.5-20.5,1.5v-1h10l1-1Z"/>
  <path class="st0" d="M2589.5,920c5.7-.7,9.2.8,10.5,4.5l3,13v10h-1l-2-19-2-5.5-6.5-2-6,2-32,20-37,16-31,8h-29l-15-3-15-6-4-4-13-7-14.5-12.5,3.5,2.5,28,20,6,1,7,4,7,2h8l3,2h27l22-5,38-15,45-26Z"/>
  <path class="st0" d="M1489.5,931l8.5,6.5c-.5,1.5,0,2,1.5,1.5v1c-4.7-2.1-8.1-5.1-10-9Z"/>
  <path class="st0" d="M1965.5,932l24,12,15.5,10.5,3,4-5.5-4.5c-10.4-7.6-22.1-13.9-35-19l-2-3Z"/>
  <path class="st0" d="M2333.5,934l3.5,4.5,3,13,6,13v3l5,13,10,38,9,26v10l-5,12-9.5,11.5-34,21-15,7-11,3-1-1-10.5-.5,14.5-.5,14-5,26-14,16-11,5.5-5.5,8-14,1-12-11-32-9-35-10-26-3-12-3-5,.5-1.5Z"/>
  <path class="st0" d="M1125.5,935l2.5.5-6.5,1.5v-1l4-1Z"/>
  <path class="st0" d="M2189.5,936c8.7-1,14.2,1.2,16.5,6.5l7,13,11,29,10,19,7,20,14,30,10,32-2-1-8-28-15-32-8-22-9-17-10-27-8-15-5.5-5.5c-2.1-1.5-5.5-1.9-10-1l-19,11-22,10-41,12-16,1v-1h9l10-2,40-12,39-20Z"/>
  <path class="st0" d="M1117.5,937l2.5.5-2.5.5v-1Z"/>
  <path class="st0" d="M1501.5,940l7.5,2.5-1.5.5-6-2v-1Z"/>
  <path class="st0" d="M786.5,941l6.5,14.5,3,3,5,10,14.5,15.5c6.6,6.7,14.3,12.4,23,17l24.5,9.5-1.5.5c-11.5-3.1-21.9-7.5-31-13l-25.5-22.5-13-19-6-13,.5-2.5Z"/>
  <path class="st0" d="M1729.5,941h12c5.5,2.2,9.6,5.7,12.5,10.5l3,8.5,4,2.5v4l3,5,7,20-1.5,2.5-.5-4.5-10-27-3-3-3-7-8.5-8.5c-2.7-2.3-7-3-13-2l-39,16-40,10-14,1-1,1h-34l-3-2h-9l-1-1h-13l-11-2-5.5-2.5,1.5-.5,14,3h11l4,2h9l7,2h29l1-1h8l11-2,35-9,38-16Z"/>
  <path class="st0" d="M1513.5,944l3.5,1.5-1.5.5-2-2Z"/>
  <path class="st0" d="M1520.5,947l7.5,4.5-1.5-.5c-3.7-.5-5.7-1.9-6-4Z"/>
  <path class="st0" d="M2601.5,949l.5,10.5-1,1-1,11-2.5,6.5-.5-2.5,3-9v-9l1.5-8.5Z"/>
  <path class="st0" d="M1531.5,953l9.5,4.5-1.5-.5-8-3v-1Z"/>
  <path class="st0" d="M1542.5,958l3.5,1.5-1.5.5-2-2Z"/>
  <path class="st0" d="M2013.5,959l17.5,5.5-2.5.5-12-3-3-3Z"/>
  <path class="st0" d="M1548.5,960l2.5.5-2.5.5v-1Z"/>
  <path class="st0" d="M1556.5,962l2.5.5-2.5.5v-1Z"/>
  <path class="st0" d="M891.5,964l5.5.5-5.5.5v-1Z"/>
  <path class="st0" d="M2035.5,964l9,2h12l1,1,29.5,3.5-8.5.5-1-1h-7l-16-3-17-1-2-2Z"/>
  <path class="st0" d="M2596.5,981l.5,1.5c-1.9,1.8-2.5,4.8-2,9l-3.5,5.5-.5-1.5,5.5-14.5Z"/>
  <path class="st0" d="M1769.5,996l1.5,2.5-2-1,.5-1.5Z"/>
  <path class="st0" d="M2591.5,998l.5,5.5-2,4-1,7-2.5,3.5-5,1v-1l5.5-2.5,4.5-17.5Z"/>
  <path class="st0" d="M1772.5,1002l2.5,2.5v4l7,20,7.5,9.5c2.2-.7,3-.2,2.5,1.5l2,3-2-1-1.5-2.5c-3.3.3-5.2-.8-5.5-3.5l-7-13-5.5-20.5Z"/>
  <path class="st0" d="M864,1010l12.5,4,21,4,21,1,1,1h18c1.1-1.9,3.8-2.2,8-1l1,1h8l10,4,16.5,15.5,43,58,2,5,6.5,6.5,8,6,4.5.5-4.5.5-15.5-12.5-1-4-37-51-21.5-22.5-11-5h-38l-1-1-20-1-31.5-7v-2Z"/>
  <path class="st0" d="M2580.5,1026l.5,2.5h-1l.5-2.5Z"/>
  <path class="st0" d="M2578.5,1037l.5,12.5h-1l.5-12.5Z"/>
  <path class="st0" d="M1794.5,1044l1,2-1-2Z"/>
  <path class="st0" d="M1149.5,1048l.5,1.5-2,2-2,7-8.5,8.5-29,21-37,22-14,6-9,1v-1l8-1,16-7,50-31,20.5-16,3-5.5v-3l3.5-4.5Z"/>
  <path class="st0" d="M2577.5,1056l.5,1.5-1.5,2.5-.5-1.5,1.5-2.5Z"/>
  <path class="st0" d="M1864.5,1061h17l2,1,1-1h63l1,1,12.5.5-13.5.5-1-1h-61l-4,1-1-1h-16v-1Z"/>
  <path class="st0" d="M1846.5,1062l16.5.5-26.5,1.5v-1h9l1-1Z"/>
  <path class="st0" d="M1962.5,1063c6.4-.7,11.6-.2,15.5,1.5l-5.5.5-1-1h-9v-1Z"/>
  <path class="st0" d="M1827.5,1064l5.5.5c-2.7,1.9-6.9,2.4-12.5,1.5v-1c3.7,1,6,.7,7-1Z"/>
  <path class="st0" d="M1983.5,1064l19,1,23,4h15l12.5,2.5-4.5.5-9-2h-14l-1-1-15-1-8-2-18-1v-1Z"/>
  <path class="st0" d="M1812.5,1066l6.5.5-13.5,1.5v-1c3.7,1,6,.7,7-1Z"/>
  <path class="st0" d="M2575.5,1066l.5,1.5-2,1,1.5-2.5Z"/>
  <path class="st0" d="M1793.5,1068l10.5.5-23.5,2.5-23,6-16,2v-1l16-2,5-2,31-6Z"/>
  <path class="st0" d="M2573.5,1070l.5,1.5-1.5,2.5-.5-1.5,1.5-2.5Z"/>
  <path class="st0" d="M2054.5,1072l20,3,15,4h6l4,2,20,4,3,2,12,2,10,4,17,4,31,12h3l27,12,5,1,59,28c10.3,7.3,21.7,13.7,34,19l51,35,14,12,16,10,14,6,12,3,15.5,1.5-10.5.5-18-4-14-6-76-54-48-27-28-12-17-9-37-15-44-15-11-2-6-3-39-10h-5l-35-7v-1Z"/>
  <path class="st0" d="M2571.5,1075l.5,2.5-5,10v7l-3,11v7l-4,13-1,11-2,3-3,19-3,9-5,32-5,21c-1.4,6.9-4.6,12.1-9.5,15.5l-6,3-21,1v-1l21-1,10.5-8.5,4-10,6-26c.1-8.2,1.5-15.2,4-21v-6l3-9,3-19,2-4v-7l7-28,1-13,5.5-11.5Z"/>
  <path class="st0" d="M1734.5,1079l5.5.5-7.5,1.5v-1l2-1Z"/>
  <path class="st0" d="M1723.5,1081l4.5.5-14.5,2.5-36,10h-4l-23,7-5,3h-5l-10,4h-4l-13,4-12,6-56,22-65,33-27,16-56,40-23.5,21.5c.5,1.5,0,2-1.5,1.5-17.5,14.2-31.6,31.7-42.5,52.5l-5,10-6,19-1,15-1,1v10l3,13,6,11,5.5,5.5,9,6,8,3h5l3,2,18,2,1,1h7l1,1h12l1,1h11l2,1,1-1,39-1,11-2h13l1-1,40-3,7-2h7l13-3h6l37-8,11-1,16-4,12-1,6-2,26-4,5-2,31-4,5-2h6l12-3,49-4,84-16,29-1,22-4h7l3.5,1.5-3.5.5-5-1-1,1-21,2-1,1h-9l-1,1h-19l-1,1-34,5-24,6h-6l-25,5-43,3-17,4-31,4-5,2-16,2-16,4-18,2-16,4h-6l-26,6-10,1-5,2h-6l-28,5-26,2-1,1h-10l-1,1h-17l-9,2h-15l-8,2h-26l-8-2h-12l-8-2h-9l-18-4c-9.1-2.5-16.3-7-21.5-13.5-4.9-6.1-8.2-13.8-10-23v-18l3-17,5-14,12-22,8-12,26.5-27.5,2.5-1.5,4.5-5.5,22-19,55-39,22-13,66-34,80-32c6.9-.5,12.5-2.1,17-5h4l26-9,54-13Z"/>
  <path class="st0" d="M2265.5,1090c1.7,5.7,4.7,10,9,13,1.5-.5,2,0,1.5,1.5l.5,1.5c-6.2-3.7-9.9-9-11-16Z"/>
  <path class="st0" d="M1885.5,1101h26l1,1h15l1,1,18,1,1,1,31,1,1,1,17,1,8,2h9l7,2,18,2,20.5,5.5-3.5.5-9-3-21-4h-6l-7-2h-9l-7-2-19-1-1-1-33-1-1-1-16-1-1-1h-59l-1,1h-12l-1,1-21,1-11,2-26,1-1,1-31,3-17,4h-5l-37,9-18,3-19,6h-4l-48,16-8,4-24,8-9,5-32,13-54,29c-32.8,18.9-62.3,41-88.5,66.5l-1.5,2.5-11.5,10.5-11,13-8,13-2,7v10l1,4,4.5,4.5,10,4,11,1,1,1h67l1-1h7l6-2,23-3v1l-17,2-12,3h-7l-1,1h-67l-19-4-7.5-5.5-2-4-1-10,2-7,8-14,22.5-25.5,2.5-1.5,3.5-4.5,19-17,27-21,41-26,54-29,47-20,41-14,8-4,46-13,76-16,16-1,17-3h10l1-1h14l1-1,21-1,9-2,35-1,1-1Z"/>
  <path class="st0" d="M2064.5,1121l52,13,18,6,15,7,23,7,30,14,10.5,8.5,1,2-4.5-3.5-8-6-23-11-28-9-19-9-37-11-30-7v-1Z"/>
  <path class="st0" d="M2215.5,1179l3,4-3-4Z"/>
  <path class="st0" d="M2219.5,1184l7.5,11.5h-1l-6.5-11.5Z"/>
  <path class="st0" d="M2228.5,1200l.5,2.5h-1l.5-2.5Z"/>
  <path class="st0" d="M2229.5,1205l.5,4.5h-1l.5-4.5Z"/>
  <path class="st0" d="M2229.5,1214l.5,11.5h-1l.5-11.5Z"/>
  <path class="st0" d="M2228.5,1227l.5,1.5-3,6-5.5,5.5-35,6c-1-1.7-3.3-2-7-1l-1,1-22,1-1,1h-13l-14,3-4-1-8,2h-12l-9,2h-24l-4,2h-16l-5,1v-1l11-1,1-1h9l1-1h25l16-3,19-1h2l10-2h13l1-1h10l10-2h17l13-3h8l9-3,3.5-3.5,4.5-7.5Z"/>
  <path class="st0" d="M2445.5,1237h18l1,1h17l1,1,12.5.5-12.5.5-1-1-36-1v-1Z"/>
  <path class="st0" d="M2846.5,1243c4.9-.9,8.3-.3,10,2h30l9-2h15l3.5,2.5-1.5-.5-15-1-9,2-31,1c-1.7-3-5.3-4-11-3l-8,2-2.5-1.5,9.5-.5,1-1Z"/>
  <path class="st0" d="M2676.5,1244l18.5.5-18.5.5v-1Z"/>
  <path class="st0" d="M2697.5,1244l7.5.5-7.5.5v-1Z"/>
  <path class="st0" d="M2832.5,1244l1.5.5-3.5,3.5h-56v-1h23l2-1,1,1h29l3-3Z"/>
  <path class="st0" d="M2711.5,1245h42l1,1,13.5.5-14.5.5-1-1h-41v-1Z"/>
  <path class="st0" d="M2918.5,1247l4.5,3.5,1,3h-1l-3-5.5-1.5-1Z"/>
  <path class="st0" d="M2923.5,1255l.5,3.5-4,11-7.5,7.5-11,6-13,4-15,1v-1l15-1c2-2,5-3,9-3l11-5,10.5-8,4.5-15Z"/>
  <path class="st0" d="M2040.5,1257l-.5,1.5c.5,1.5,0,2-1.5,1.5l-4-1-1,1-22,1v-1l5-1h17l7-2Z"/>
  <path class="st0" d="M2001.5,1261l6.5.5-11.5,1.5v-1l5-1Z"/>
  <path class="st0" d="M1991.5,1263l3.5.5-3.5.5v-1Z"/>
  <path class="st0" d="M1984.5,1264l5.5.5-6.5,2.5h-12l-7,2h-10l-1,1h-7l-8,2h-7l-1,1-27,3v-1l27-3,1-1h7l7-2,18-1,8-2h9l4-2Z"/>
  <path class="st0" d="M1896.5,1276l5.5.5-5.5.5v-1Z"/>
  <path class="st0" d="M1889.5,1277l5.5.5-3.5,1.5-2-2Z"/>
  <path class="st0" d="M1881.5,1278l6.5.5-6.5.5v-1Z"/>
  <path class="st0" d="M1872.5,1279l7.5.5-14.5,1.5v-1c3.7,1,6,.7,7-1Z"/>
  <path class="st0" d="M1858.5,1281l4.5.5-9.5,2.5-2-1-10,3v-1l4-2,8-1,2,1,3-2Z"/>
  <path class="st0" d="M1836.5,1285l3.5.5-26.5,6.5-24,2h-2l-8.5-.5,10.5-1.5c.9,1.5,2.9,1.9,6,1l1-1,17-1,23-6Z"/>
  <path class="st0" d="M2867.5,1288l3.5.5-3.5.5v-1Z"/>
  <path class="st0" d="M2862.5,1289l2.5.5-6.5,2.5h-7l-10,2v-1l21-4Z"/>
  <path class="st0" d="M2664.5,1292l39.5.5-38.5.5c-7.3,1.1-12.4,4.2-15.5,9.5l-5,12-2,11-1,18-1,1v24l-8,41v13l-1,1-1,18-2,10v37l-2,7-1,18-1,1v27l-2,10-8,12.5-16.5,10-31,11-26,5-12,4h-5l-7,2h-11l-6.5-2.5,3.5-.5c2.2,2.1,5.9,2.8,11,2l55-12,33-12,6.5-4.5,1.5-2.5,3.5-1.5c4.3-4,7.3-9.3,9-16v-24l1-1,2-29,2-8v-34l1-1v-11l1-1,3-36,7-36v-26l1-1,2-22,6-15,5.5-5.5,10-4Z"/>
  <path class="st0" d="M2709.5,1293l47,1c1-1.7,3.3-2,7-1l3.5,1.5-47.5.5-1-1h-9v-1Z"/>
  <path class="st0" d="M1772.5,1294l5.5.5-16.5,3.5v-1l11-3Z"/>
  <path class="st0" d="M2769.5,1294l23.5,4.5-5.5.5-5-2-11-1-2-2Z"/>
  <path class="st0" d="M2833.5,1294l5.5.5c-5.3,0-9.5,1.2-12.5,3.5l-11,1v-1l13-2,5-2Z"/>
  <path class="st0" d="M2503.5,1296c8.8-.8,15,1,18.5,5.5,2.1,2.9,2.7,7.3,2,13l-3,9-5.5,5.5c-7.9-.5-13.4-3.3-16.5-8.5-4.8-3.5-7.8-8.9-9-16l4.5-5.5,9-3ZM2505,1297l-8,2-5,5v5l7,10,12,9,6-1c3.3-3.3,5.3-7.7,6-13s0-9-2-11c-2.7-4.7-8-6.7-16-6Z"/>
  <path class="st0" d="M1755.5,1298l3.5.5-19.5,6.5-8,1v-1l7-1,17-6Z"/>
  <path class="st0" d="M2800.5,1299l9,1,4-1v1l-5,1c-1.1-1.8-3.8-2.1-8-1v-1Z"/>
  <path class="st0" d="M2288.5,1303c12.2-1.5,21.5-.2,28,4l31.5,27.5,45,52c9.6,14.7,20.3,28.4,32,41l11,17,19,40,10,17,10,24v3l7,19,3,20,4,14h-1l-5-17-2-16-8-25-9-21-10-17-18-39-12-18-16-19-15-21-27-30-14-18-14.5-14.5-25-20-8-2h-13l-1,1h-16l-1,1h-11l-1,1h-18l-1,1-21,1-1,1h-10l-1,1h-16l-10,2h-14l-8,2h-19l-1,1-18,1-8,2-35,2-23,4h-16l-1,1h-10l-1,1h-10l-7,2h-8l-6,2-33,4-6,2h-6l-14,3h-16l-1-1-12.5-.5,5.5-1.5,2,1,5-1c3.6,2.1,8.6,2.7,15,2l33-6,21-2,4-2,2,1,20-4,46-3,16-3,53-4,9-2h15l1-1h10l1-1,38-2,1-1,23-1,1-1h10l1-1,45-2,1-1Z"/>
  <path class="st0" d="M1725.5,1306l4.5.5-5.5,1.5,1-2Z"/>
  <path class="st0" d="M1721.5,1307l1.5.5-1.5,1.5c-4.5-.8-7.5-.1-9,2h-7l-11,3h-7v-1l24-3,3-2c3.7,1,6,.7,7-1Z"/>
  <path class="st0" d="M1679.5,1314l6.5.5-6.5.5v-1Z"/>
  <path class="st0" d="M1672.5,1315l4.5.5-5.5,1.5,1-2Z"/>
  <path class="st0" d="M1663.5,1317l1.5.5-3.5,1.5v-1l2-1Z"/>
  <path class="st0" d="M1656.5,1319l3.5.5-7.5,1.5-3,2h-5l-7,3-14,2-5-2c-.3,2.3-2,3.3-5,3l-5-1-1,1h-24l-16,3v-1l16-3h22l1-1h10.5c-.9-2.2.3-2.9,3.5-2l5,2,6-2h6l19-6Z"/>
  <path class="st0" d="M1562.5,1332l3.5.5-8.5,2.5h-5l-4,2-17,1v-1h7l13-3h6l5-2Z"/>
  <path class="st0" d="M1512.5,1338l8,1c1-1.7,3.3-2,7-1v1l-13,1-2-1c-1,1.7-3.3,2-7,1l-4,2-3.5-1.5,14.5-2.5Z"/>
  <path class="st0" d="M2489.5,1583l5,7,4.5,2.5-1.5-.5-6.5-4.5-1.5-4.5Z"/>
  <path class="st1" d="M590.5,73h3c.3,2.3,2,3.3,5,3l3-1,3,3h5l13,4c1-1.7,3.3-2,7-1l15,3,4-1,6,3,16,1,5,3,16,1,12,4h8l18.5,7c-.7,1.8-.2,2.5,1.5,2l4,2,3-2,3,4,5,2,2-1,16,7,9,1,19,6,19,2,1.5,1.5,1,3.5h3.5l6,4c3.5-.8,5.7-.3,6.5,1.5-.7,2.2-.2,3,1.5,2.5l7,4,10,1,7,3,3,3c6.8,1.9,12.5,4.9,17,9h4l4,3,8,1c2,2.7,5.3,4,10,4l16,9h3c7.3,7.1,15.6,13.1,25,18l18,5,5.5,3.5c-.5,1.5,0,2,1.5,1.5l5.5,3,1.5,4c1.5-.5,2,0,1.5,1.5l12.5,11.5,11,4,7,1,16.5,10,1.5,3,12.5,6,1.5,3h3l8.5,6,6.5,9c2.7-.3,4.2.5,4.5,2.5-.7,2.2-.2,3,1.5,2.5l10.5,8.5,6.5,8.5,11.5,7,12.5,20,6.5,5.5,2,8c2.7,1.5,4,4,4,7.5l3,1.5v13l4,20v24l-3,17-11,27-10,16-17.5,19.5-43,34-11.5,11.5-1,4c1.9,3.5,6,4.7,12.5,3.5l1-1h7l1-1,23-3,22-7c14.9-6.1,27.4-14.6,37.5-25.5l3.5-4.5,22.5-21.5c15.1-15.9,29.1-32.9,42-51l18.5-19.5,12-10,66-43,13-5,15-1,8.5,7.5,2,9v32c2,3.3,2.7,8,2,14l14,55,1,8,3,7,3.5,3.5,5,1,6-3,12.5-12.5,35.5-36.5,38-34,22-16,23-14,29.5-13,1.5-3,7-1,5-3,10-2,2-2c3.5.5,5.9-.1,7-2l32-6h6l6-3c.9,1.5,2.9,1.9,6,1l2.5-4,10.5,4h12l2,1,4-2,3,2,1-1h12l1,1,17,1c2,2,5.3,2.7,10,2l35,11,3.5-1,1.5,3c6.5.5,11.5,2.5,15,6h4l14,8c3.6-.4,6.1,0,7.5,1l1.5,3,15,6,13,9,12,6,3-1,3,5h3l6,3,7.5,5.5,1,4.5c3.8-.7,6.5.2,8,2.5-.3,3.3.8,5.2,3.5,5.5l6.5,2v4h1.5l6.5,4.5,1.5,2.5h3l8.5,6.5,2.5,4.5,5.5,3.5,3,4v2.5c2.5-.7,4.2-.2,5,1.5l3.5,4.5,2-1,9,10,2-1,4,5,4.5,3.5,10,20,4,5,1,4.5c1.8-.7,2.5-.2,2,1.5l1,2.5,2.5-1,2.5,6.5,4.5,5.5,11,5h11l49-15c7.4-3.6,13.6-8.4,18.5-14.5,7.3-8.7,13.3-18.7,18-30l8-21,4-16,7-15,14.5-16.5,64-51,15-9h9l1-1,2,2,5,1,8.5,8.5,1,4v62l1,1,1,20,2,5,1,21c3,5.7,4.7,12.7,5,21l4,11,2,18,2,2,5,18,14,74,6,21v4l7,19,1,9,2,4v5l3,8,3,24,11,29,7,28,4,9,4.5,5.5,6,1,3.5-2.5,8-14,7-22v-4l2-3c-.9-3.2-.5-5.2,1-6v-29l-3-15v-7l-2-4c.9-7.9.2-14.2-2-19v-25l3-16,1-22c-1.5-.8-1.8-2.8-1-6l2-11,10-30,8-14,10.5-10.5,16-12,17-9,38-24,21-10,6-2,12-1,13.5,5,1.5,3,3.5,2.5,5,11,2,10v12l-3,8-2,22-2,8v9l-6,17-7,34-7,20-3,5-4,14-4,6-4,12-12,23-11,32-17,33-5,23v22l1,1v6l3,12,1,11,11,29,18,30,21.5,22.5,21,15,24,10,23,4h22l19-4,12-4c9.4-3.6,17.2-8.8,23.5-15.5,12.2-13.1,22.9-27.8,32-44l11-26,4-17,2-16,2-4,9-40v-6l5-25,6-46,3-12,2-22,4-15,2-19,1-1,1-24c2.9-12.8,8.7-22.6,17.5-29.5,15.3-12.3,31.7-23.7,49-34l22-13,14-7,6-1,3,1,4-2,11.5,7,5,10.5v14l-1,1-2,17-7,26v7l-4,12-5,26-2,4-4,27-6,24v6l-2,6-2,17-8,32-2,16-7,29-3,24-5,21-1,11-4,14-7,46-18,90-9,60-4,15v6l-15,75-1,15-4,12v5l-4,19v9l-3,9-3,23-1,1v12c.9,4.5,2.7,8,5.5,10.5l5,3,8,2,76,1,1,1h20l1,1h56l5-4,5,2c3.1-1.9,7.4-2.6,13-2l4,3h17l1-1h13l1-1,15-1c1.2,1.9,3.9,2.2,8,1l7.5,3,4,6.5-5,15.5-10.5,8-20,8h-8l-19,4h-6l-15,4h-7c-3.8,2.2-8.8,3.2-15,3l-10,3-1-1h-14c-7-2.7-15-4.3-24-5l-2,1c-2-2-5.3-2.7-10-2l-1,1h-31l-1-1h-20l-1-1h-39c-7.2,1.1-12.4,4.3-15.5,9.5l-6,15-2,22-1,1v26l-1,1-1,13-3,9v6l-3,14v8l-1,1v10l-1,1-1,21-1,1v34l-2,8-2,29-1,1v24c-1.9,7.5-5.4,13.3-10.5,17.5l-3.5,1.5-1.5,2.5c-11.6,6.1-24.3,11.1-38,15l-48,11-14,1c-1.5-1.8-4.2-2.5-8-2l-7.5-5.5-5-11-5-29-7-19v-3l-10-24-10-17-19-40-11-17c-11.7-12.6-22.4-26.3-32-41l-50.5-57.5-23-20-9-5-5-1h-17l-1,1h-14l-1,1h-13l-1,1h-16l-1,1-34,2-1,1h-14l-1,1-23,1-1,1h-10l-1,1h-15l-9,2-53,4-16,3-46,3-21,4-2-1-3,2-21,2-25,5-17,1-10-2-2,1-3-1-4,2c-2.2-2.1-5.9-2.8-11-2l-22,4-29,1-7,2h-6l-41,9-12,1-25,5h-12l-1,1h-13l-1,1-15,1-6,2-12,1-5,2-31,4-5,2-26,4-6,2-12,1-16,4-11,1-37,8h-6l-13,3h-7l-7,2-40,3-1,1h-13l-11,2-39,1-2,1-1-1h-11l-1-1h-12l-1-1-15-1-11-2-3-2h-5c-9.6-2.7-17.1-7.6-22.5-14.5l-7-14c.5-4.5-.2-7.8-2-10v-10l1-1v-10l3-13,9-21c10.9-20.8,25-38.3,42.5-52.5,1.5.5,2,0,1.5-1.5l23.5-21.5,47-34,22-14,79-41,39-15,29-13,13-4h4l10-4h5l5-3,23-7h4l36-10,15-3h6l6-2,12-1,28-7,32-3,7-2h10l4-2,47-2,4,1,1-1h61l1,1h14l1,1,15,1,5-1,1,1,18,1,1,1,22,2,1,1,22,1,42,9h5l69,19,49,18,56,25,51,28c26.5,16.9,51.8,34.9,76,54l19,9,18,4h12l1,1,36,1,1,1h36l10-2,8.5-7.5,4-10,5-21,5-32,3-9,3-19,2-3,1-11,4-13v-7l2-5,1-13,5-10,2-8,2-2v-7l2-3c-1.2-4.1-.9-6.8,1-8v-17c2.5-3,3.1-7.5,2-13.5l7-2.5,4-13v-7l3-5v-5l6-20,2-29-3-13-3.5-3.5-7-1-37,22-43,18-25,6h-27l-3-2h-8l-7-2-7-4-6-1-31-23h-2l-6-6c-8.3-4.1-15.4-9.2-21.5-15.5.6-2-.6-2.5-3.5-1.5l-2.5-1-2.5-7-2.5-1.5-4-7-19-22-10-21-6.5-6.5c-3.9-.5-6.4.3-7.5,2.5-1.7,1.9-2.4,4.9-2,9l7,16v3l4,7v6l3,11.5,4,2.5v8l5,9,1,7,3,5v4l3,5,3,12,10,26,9,35,11,32v7c-2.5,10.5-7.4,18.6-14.5,24.5-14.6,11.1-30.9,20.4-49,28l-7,2h-19l-3.5-2.5c.5-1.5,0-2-1.5-1.5l-8.5-10.5-1-8-3-6-5-20-16-35-7-20-10-19-11-29-7-13-5.5-5.5-11-1-30,16-24,9-35,9h-20l-1-1-15-1-8-2h-12l-12-3-4,1-11-3-2-2h-7l-3.5-3.5-1.5-2.5-14-9-27-13-3.5-3.5-1.5-2.5-12-11-4.5-1-1-6h-2.5l-13.5-10.5,1-2-19-26v-3.5l-3-1.5-9-20-6.5-7.5-7-2c-8.2,2.5-14.4,7-18.5,13.5l-4,9v8l12,36,7,14,16,40,3,10v11l-5,13-7.5,8.5c-14.5,12.9-30.5,24.2-48,34l-19,9-10,3h-5l-5,3-4.5-8c-3.1.5-5.1-.6-6-3.5l-7-13-4-13v-4l-2.5-2.5c-2.3.6-2.8-.9-1.5-4.5l-2-3,2-4-10-24v-4l-2.5-2.5c-1.7.5-2.2-.3-1.5-2.5-2.4-6.3-6.2-11.1-11.5-14.5-3.3-2.7-8.7-3.3-16-2l-32,14-32,9-29,5h-29l-7-2h-9l-4-2h-11l-15-3-2,1-9-3h-4l-32-16-16.5-5-1.5-3-24-16h-3.5l-3.5-5-16-11-24-23-8-3h-5l-9,2-22,9-91,46-36,16-17,4-10,5h-5l-7,2-25,9-11,1-6,3h-6l-16,4c-8.7,2-15.5,5.8-20.5,11.5-1.7,2.3-2,6-1,11l16,26,3,9,1,11-4,5v3l-3,5.5-20.5,16-50,31-16,7-11,1-5-1-14.5-12.5-2-5-37-51-19.5-20.5-13-6-16-1-1,1h-18l-1-1h-12l-1-1-15-1-26-7h-2c-11.5-3.1-21.9-7.5-31-13l-26.5-23.5-12-18-10-23-5-21v-27c-1.1-7.3-4.2-12.4-9.5-15.5l-13-5-2-2h-4l-20-8-54-14-27-10-17-3-9-3h-6l-17-5-19-3-2,1-3-3-25-11-15-4-12-1c-1.7-3-5.3-4-11-3l-9-6-17-3-4-2h-5l-22-11c-16.6-5.1-31.9-11.4-46-19l-39-13-24-11-19-5-2-2h-4l-14-7-13-3-2-2h-5l-6-2c-11.7-5-21.8-11.5-30.5-19.5.5-1.7-.3-2.2-2.5-1.5l-6-7-6.5-3.5c.5-1.5,0-2-1.5-1.5-8.3-6.1-19.3-9.4-33-10l-7.5-6.5-10.5-12.5-8.5-7.5-17.5-18.5-6-4-18.5-18.5-10-18-4-4v-3l-14-23-6-13-11-37-3-4c.7-5.3,0-9.3-2-12v-11c-1.9-1.1-2.5-3.5-2-7,1.9-1.1,2.2-3.8,1-8l-1-1v-11l4-19-1-2,4-23,2-7,3-4v-5l3-10,7-18,23-49,38-61c15.6-20.4,32.4-39.6,50.5-57.5l4.5-3.5,8.5-9.5,33-24,32-16,29-20,10-4,4-4,10-1,8-3,3,1,27-7,6-4h5l2-2,16-5,12-2,3-2h7l17-3h41l7-2h11l9-3,1,1h8l6-2h19l10-2h26l1-1ZM507,165l-1,1h-23l-1,1h-39l-1,1h-12l-16,4-24,3-26,8-18,4-47,17-35,17c-22,12-41.7,26-59,42-14.7,11.3-26.3,25.3-35,42l-12,32-4,20v44l3,12,2,16,8,25,7,13,18,25,22,22,4,7c2.7-.7,4.3.3,5,3l-1,3,3,1c1.3.7,1.3,1.7,0,3l1,6,5,7,1,4,5,4,8,3,31,20,11,9h4l1,3c5.3.7,10,2.3,14,5h3l14,8c2.7.7,4.7,0,6-2l10,8h2l13,9h6l5,2,23,12h6l10,7,17,5,11,6,7,1,3,3c4-.7,7,.3,9,3h7l20,6h4l34,12,16,4,2,2h4l10,4,25,6,37,13,31,8h4l4,2,22,4,39,12,18,4c5.3.7,9-.3,11-3l-1-8-14-16-1-4-4-2c.7-2.7.3-3.7-1-3l-17-20-38-42-18-25c-10.7-11.3-20.7-23.3-30-36l-55-59-10-13-3-2-11-14-41-38-25-24-5-10-1-5,1-6,7-13,29-36,34-34,5-3,5-1h13l12,8,62,70,3,1,2,4,6,4,58,69c-.7,2,0,2.7,2,2l6,9,5,11,11,8h9l20-10,7-2h10l1-1,26,1,27,5h14l3,2,5-2h21l1-1h16l1,1,33-1,1-1h13l1-1h9l8-2h6l29-6,15-8c4.7-4,8-9.3,10-16l6-23v-21l-2-2-1-10-4-13-7-13-3-2-23-30-4-4-20-22-14-13-38-25-40-21-27-17-37-16-29-10-22-10-39-10c-1.3-2.7-2.3-3-3-1l-49-14-20-4-3-2h-11l-22-4-4-2h-8l-16-3h-10l-1,1h-13l-1-1h-10l-1-1h-28ZM1564,403l-1,1-25,2-7,2h-7l-23,5c-18,4.7-33,12-45,22-6.7,5.3-12,12-16,20l-15,30-18,42-4,16v7l-2,5v37l2,10,4,8,5,3c4,.7,7.3,0,10-2l32-27c10.7-8,22.7-15,36-21l29-10h8l2-2,32-2,15-9,18-17,1-2,3-2,32-35,20-19,16-7c2.7-.7,4.7,0,6,2l4-1,10,4,21,14,14,7,24,10,35,11c4,.7,7.3.3,10-1l2-3-4-9-39-32-25-16-22-11-31-13-19-6-27-6-12-1-12-3h-8l-1-1-2,1-1-1h-25ZM1212,487l-13,7c-14.7,12.7-30.3,24.3-47,35l-63,40-19,10-52,23-25,8-51,12-23,2-1,1h-12l-1,1-43,1-13,3-3,4,1,9,9,13,4,3c-.7,2,0,2.7,2,2,6.7,6,12,13.3,16,22l9,8,3,1c5.3.7,9.7.3,13-1l27-18,21-11,58-24,12-4,10-1,5-3,15-2,6-3h7l3-2,16-3,4-2h5l5-3,8-2,15-1,1-1h13l1-1,4,1c2.7.7,4.7.3,6-1h26l1-1,53,1,1,1h11l1,1h7l7-2c2.7-2,4.3-4.7,5-8v-4l-6-18-2-11-7-17-1-10c-3.3-4.7-5-10.7-5-18-3.3-12-8-22.7-14-32-2-3.3-5.3-5-10-5ZM2068,509l-9,4-17,11-28,22-19,12-9,10-1,1,4,3h5l21-6h6l4-2,17-1,1-1,3,1c2.7.7,4.7.3,6-1h23l8-3,4-5v-11l-8-28-6-6h-5ZM1801,611l-1,1-25,1-10,2-9,11v9l3,3v4l3,3,5,10v3l4,6,1,6,3,4,7,21,5,5c.7,6,3,10.7,7,14v3l6,11,5,17,3,3,2,8,3,3v4l3,3,6,12,7,4c3.3.7,6,0,8-2l5-6,5-12v-4l3-9,5-10,5-18,2-3v-5l2-2-1-2,5-25-1-34-3-13v-7l-4-8-7-7c-6-2-13-2.3-21-1l-1-1h-11l-1,1c-4,.7-6.3,0-7-2l-3,1-8-2ZM1469,640l-13,3-5,3c-6,4.7-10,11.3-12,20v28l4,12,18,35,28,40,5,12c.7,4,0,6.7-2,8v6l-8,15c.7,2.7.3,4.7-1,6l1,5,5,8c17.3,17.3,39,31,65,41l41,12,21,1,1,1h15l1,1h14l1-1h12l1-1,26-2,15-3,9-4,7-8-3-5c-.7-3.3,0-5.3,2-6l-9-19-1-5-7-9-9-21-2-2-4-3-7-14-2-2-3-3c.7-3.3.3-4.7-1-4l-3-4-2-2-3-2-1-5-8-14-13-18-13-13v-2l-23-26-20-17-12-6-17-13-23-12-21-6-3-2h-6l-12-3h-23ZM1984,662l-4,2-9,13-2,13-4,11-19,39-7,27v15l5,17,1,11,4,15c8,17.3,18.3,32.7,31,46,12,12.7,27,23,45,31l28,10,28,5h7l1,1,20-1,13-3,17-2c12.7-2.7,24-7.3,34-14,3.3-2.7,5.7-6,7-10v-7l-2-7-24-48c-19.3-34-41.3-65.7-66-95-18.7-20-39-38-61-54l-25-12-10-3h-8ZM1053,697l-1,1h-7l-1,1h-7l-10,2-38,12-29,5c-9.3,2.7-17,6.3-23,11l-8,10c-.7,5.3,0,9.3,2,12l27,35,23,33,41,53,35,36,15,20,14,10,14,3,1-1,15-1,13-4h5l8-4h5l6-3,15-3,15-5,28-12h4l2-4,5-1h2l15-5c17.3-10,36.3-18.3,57-25l38-19,3-3,3-9-1-6-19-35-5-15-7-12-12-13-29-19-28-14-43-16-35-9-14-1-1-1-26-1-1-1-18-1-1-1h-47ZM834,899l-2,1-4,5v11l3,10,9,15,9,8,17,9,20,6,15,1,1,1,7-2,3-3v-6l-4-7c-14.7-15.3-30.7-28.7-48-40l-13-7-7-2h-6ZM1886,1101l-1,1-35,1-9,2-21,1-1,1h-14l-1,1h-10l-17,3-16,1-76,16-46,13-8,4-41,14-47,20-54,29-41,26-27,21-19,17-4,5-2,1-23,26-8,14-2,7,1,10,2,4,8,5,19,4h67l20-4,12-1,6-2,4,1,4-2c3.3,1.3,5.7,1,7-1l2,1h7l7-2h10l1-1h9l4-2h5l9-3,17-3h24l1-1,5,1c2.7.7,4.3-.3,5-3l5,2,14-2,7-3h5l16-6h7l5-2h8l1-1h8l11-3h7l3-2h6c.7-2.7,1.7-3,3-1l15-3,28-9,11-2h11l24-2,23-6h8l7-3,2,1,10-3h8l17-3,3,1,4-2h6l14-3,23-2,16-3h10l7-2h12l3-2,15-3,15-1,1-1h16l1-1,4,1c1.3.7,1.7.3,1-1l2-2h8l1-1h16l4-2h24l9-2h12l8-2,4,1,14-3h13l1-1,22-1,1-1c3.3-.7,5.7-.3,7,1l35-6,5-5,4-9v-20l-1-5c-2-7.3-5.3-13.3-10-18l-4-4-2-2c-6.7-7.3-14.7-12.7-24-16-12-6-25-10.7-39-14l-15-7-39-12-36-8-12-4-34-6h-9l-8-2-17-1-1-1-31-1-1-1-18-1-1-1h-15l-1-1h-26ZM2504,1296l-9,3-5,6c1.3,6.7,4.3,12,9,16,3.3,4.7,9,7.3,17,8l5-5,3-9c.7-6,0-10.3-2-13-3.3-4.7-9.3-6.7-18-6Z"/>
</svg>